<?xml version="1.0" encoding="UTF-8"?>
<svg version="1.1" xmlns="http://www.w3.org/2000/svg" width="465" height="546">
<path d="M0 0 C4.96490566 4.28787307 5.41188277 9.77575936 6 16 C6.84806701 29.19840341 5.65702436 41.30895657 2 54 C1.78569336 54.75023437 1.57138672 55.50046875 1.35058594 56.2734375 C-1.93353582 67.47865059 -6.41478672 77.76223418 -12 88 C-12.61617188 89.13566406 -13.23234375 90.27132812 -13.8671875 91.44140625 C-21.47908961 105.07018533 -29.88116189 118.33180047 -39 131 C-40.38541906 132.95736632 -41.76676711 134.91757157 -43.14794922 136.87792969 C-44.70731081 139.09061086 -46.26948414 141.30128626 -47.83203125 143.51171875 C-49.87692996 146.4061043 -51.91597958 149.30444459 -53.94921875 152.20703125 C-64.63737843 167.44798574 -75.72405799 182.37026499 -87.03149414 197.15649414 C-96.67413005 209.78367217 -106.03173559 222.61737671 -115.31494141 235.51025391 C-118.70346715 240.21487271 -122.12228826 244.89558933 -125.5625 249.5625 C-130.94257124 256.87430263 -136.18240493 264.28103603 -141.39355469 271.71386719 C-143.06109563 274.08694521 -144.73704291 276.45392517 -146.4140625 278.8203125 C-157.28226995 294.19437013 -167.53409674 309.93019103 -177.4609375 325.92578125 C-179.81934805 329.72190436 -182.213904 333.49447842 -184.61083984 337.26635742 C-189.57513789 345.08639521 -194.4351751 352.93849453 -199 361 C-199.72171387 362.269646 -199.72171387 362.269646 -200.45800781 363.56494141 C-206.38778263 373.99930155 -212.28124907 384.44813972 -218 395 C-222.71505235 392.57249559 -222.71505235 392.57249559 -223.96313477 390.06494141 C-224.19987915 388.96931885 -224.19987915 388.96931885 -224.44140625 387.8515625 C-224.63041504 387.02172852 -224.81942383 386.19189453 -225.01416016 385.33691406 C-225.1951123 384.44198242 -225.37606445 383.54705078 -225.5625 382.625 C-225.86873291 381.22846191 -225.86873291 381.22846191 -226.18115234 379.80371094 C-226.81388318 376.87394561 -227.41227741 373.93910233 -228 371 C-228.18449707 370.08637695 -228.36899414 369.17275391 -228.55908203 368.23144531 C-230.32007399 359.42808204 -231.90367038 350.59529899 -233.4375 341.75 C-235.39695127 330.456016 -237.70976833 319.23064327 -240 308 C-240.19319824 307.04802734 -240.38639648 306.09605469 -240.58544922 305.11523438 C-248.56361625 265.89096443 -256.95078301 226.48498459 -268 188 C-268.5703364 185.9804755 -269.14064778 183.96094393 -269.7109375 181.94140625 C-272.67052987 171.54917357 -275.79686336 161.28168675 -279.54296875 151.14453125 C-280.77428321 147.75820108 -281.8144511 144.33057292 -282.84765625 140.87890625 C-292.84090577 106.74438055 -292.84090577 106.74438055 -314.234375 79.359375 C-315.10835937 78.68648437 -315.10835937 78.68648437 -316 78 C-316 77.34 -316 76.68 -316 76 C-328.53983417 71.61105804 -337.67949192 70.24924262 -350 76 C-368.86447752 86.423525 -379.75648936 107.00585769 -385.96875 126.96484375 C-392.63202436 151.63746796 -392.77672697 180.56707443 -380.53125 203.52734375 C-375.58998417 211.50647964 -369.96383259 217.62726383 -361.96875 222.5625 C-360 224 -360 224 -359 227 C-359.66 227.33 -360.32 227.66 -361 228 C-368.75297981 224.57079739 -375.00998536 218.86193867 -381 213 C-381.70125 212.34644531 -382.4025 211.69289063 -383.125 211.01953125 C-396.9627667 197.04663011 -400.8704172 176.69874451 -401.1875 157.8125 C-400.95912843 129.77989009 -390.67384637 104.1119386 -370.64208984 84.28271484 C-353.33720182 67.71814288 -333.79762557 58.71614133 -309.81640625 58.73828125 C-293.12356957 59.22317989 -279.49848412 67.18809894 -268 79 C-265.09136652 82.17972942 -262.51402773 85.50080799 -260 89 C-259.59700684 89.56090332 -259.19401367 90.12180664 -258.77880859 90.69970703 C-244.29282933 111.17838174 -235.14104115 134.08680636 -228 158 C-227.62004883 159.26239502 -227.62004883 159.26239502 -227.23242188 160.55029297 C-217.72471839 192.73698432 -213.40682429 226.6647905 -210.25 260 C-210.13438721 261.21929199 -210.01877441 262.43858398 -209.8996582 263.69482422 C-209.56488897 267.46142292 -209.27124652 271.22829255 -209 275 C-208.95094513 275.67276978 -208.90189026 276.34553955 -208.85134888 277.03869629 C-207.68167735 293.81500383 -207.88178063 310.62572028 -207.93133545 327.4319458 C-207.94173196 331.34134367 -207.94616734 335.25074841 -207.95117188 339.16015625 C-207.9617625 346.77345571 -207.97873359 354.38672205 -208 362 C-206.72861683 359.95164995 -205.45941989 357.90199708 -204.19140625 355.8515625 C-203.83550415 355.27865479 -203.47960205 354.70574707 -203.11291504 354.11547852 C-200.936828 350.59228997 -198.88392192 347.02969915 -196.9375 343.375 C-193.34021244 336.66071669 -189.25143777 330.27481857 -184.9375 324 C-183.26783691 321.41471521 -181.82003952 318.83797113 -180.375 316.125 C-175.35311745 306.80591162 -169.74057253 297.72380768 -163.5625 289.125 C-160.3495437 284.64496234 -157.52600196 279.9712118 -154.6875 275.25 C-150.97996559 269.09501237 -147.09360986 263.18795862 -142.84057617 257.39941406 C-139.32822182 252.57277273 -136.15262125 247.56724973 -133 242.5 C-127.96917492 234.42399029 -122.61057731 226.68021335 -117 219 C-112.5505044 212.80248827 -108.36116098 206.47789818 -104.27197266 200.04003906 C-101.8103547 196.18881508 -99.19999517 192.53611257 -96.3984375 188.9296875 C-94.75274295 186.6588129 -93.35264179 184.29582631 -91.9375 181.875 C-89.98370882 178.54295303 -87.9450659 175.63364674 -85.39453125 172.71875 C-78.93503408 164.75746497 -73.79507599 155.53923276 -68.390625 146.83984375 C-65.79611681 142.66450049 -63.15684843 138.51841992 -60.51171875 134.375 C-59.16336887 132.2566622 -57.8277549 130.13128295 -56.5 128 C-54.62329451 124.98755364 -52.72230074 121.99157598 -50.8125 119 C-49.54139836 117.00017051 -48.27059716 115.00015005 -47 113 C-46.60055176 112.37464355 -46.20110352 111.74928711 -45.78955078 111.10498047 C-41.28858881 104.05011148 -36.85192272 97.09459898 -33.28881836 89.5078125 C-31.91925813 86.8428906 -30.35346792 84.41679125 -28.6953125 81.921875 C-25.11249305 76.33975384 -22.25933757 70.61375745 -19.5625 64.5625 C-19.09513428 63.5211792 -18.62776855 62.4798584 -18.14624023 61.40698242 C-16.7515424 58.27672422 -15.37451975 55.13916056 -14 52 C-13.60039062 51.10474609 -13.20078125 50.20949219 -12.7890625 49.28710938 C-6.12584218 34.27188704 -2.58922392 19.30771864 -1.26147461 2.93798828 C-1 1 -1 1 0 0 Z " fill="#EAD9A5" transform="translate(420,87)"/>
<path d="M0 0 C4.96490566 4.28787307 5.41188277 9.77575936 6 16 C6.84806701 29.19840341 5.65702436 41.30895657 2 54 C1.67854004 55.12535156 1.67854004 55.12535156 1.35058594 56.2734375 C-1.93353582 67.47865059 -6.41478672 77.76223418 -12 88 C-12.61617188 89.13566406 -13.23234375 90.27132812 -13.8671875 91.44140625 C-21.47908961 105.07018533 -29.88116189 118.33180047 -39 131 C-40.38541906 132.95736632 -41.76676711 134.91757157 -43.14794922 136.87792969 C-44.70731081 139.09061086 -46.26948414 141.30128626 -47.83203125 143.51171875 C-49.87692996 146.4061043 -51.91597958 149.30444459 -53.94921875 152.20703125 C-64.62841683 167.43520679 -75.69355565 182.35702566 -87.00732422 197.11914062 C-92.33042834 204.07802412 -97.53434584 211.11913695 -102.66015625 218.22460938 C-103.47419922 219.34319336 -103.47419922 219.34319336 -104.3046875 220.484375 C-105.0160083 221.47002441 -105.0160083 221.47002441 -105.74169922 222.47558594 C-107 224 -107 224 -109 225 C-108.67 223.02 -108.34 221.04 -108 219 C-108.99 219.33 -109.98 219.66 -111 220 C-112.34248162 217.31503676 -112.98945962 215.94076646 -113 213 C-111.62116428 210.30624811 -109.93209829 208.08186393 -108.078125 205.69140625 C-105.33421887 202.13773835 -103.03636992 198.35709413 -100.67578125 194.54296875 C-99 192 -99 192 -96.9765625 189.484375 C-95.07567924 187.09512252 -93.57288177 184.71089795 -92.0625 182.0625 C-90.06433064 178.66910017 -87.99418219 175.68977965 -85.39453125 172.71875 C-78.93503408 164.75746497 -73.79507599 155.53923276 -68.390625 146.83984375 C-65.79611681 142.66450049 -63.15684843 138.51841992 -60.51171875 134.375 C-59.16336887 132.2566622 -57.8277549 130.13128295 -56.5 128 C-54.62329451 124.98755364 -52.72230074 121.99157598 -50.8125 119 C-49.54139836 117.00017051 -48.27059716 115.00015005 -47 113 C-46.60055176 112.37464355 -46.20110352 111.74928711 -45.78955078 111.10498047 C-41.28858881 104.05011148 -36.85192272 97.09459898 -33.28881836 89.5078125 C-31.91925813 86.8428906 -30.35346792 84.41679125 -28.6953125 81.921875 C-25.11249305 76.33975384 -22.25933757 70.61375745 -19.5625 64.5625 C-19.09513428 63.5211792 -18.62776855 62.4798584 -18.14624023 61.40698242 C-16.7515424 58.27672422 -15.37451975 55.13916056 -14 52 C-13.40058594 50.65711914 -13.40058594 50.65711914 -12.7890625 49.28710938 C-6.12584218 34.27188704 -2.58922392 19.30771864 -1.26147461 2.93798828 C-1 1 -1 1 0 0 Z " fill="#D7BB7A" transform="translate(420,87)"/>
<path d="M0 0 C15.33021803 -0.34691226 28.74829205 7.41829919 39.6328125 17.63354492 C43.3922954 21.53133656 46.72916024 25.72088502 49.96875 30.05541992 C49.63875 30.71541992 49.30875 31.37541992 48.96875 32.05541992 C47.09375 31.80541992 47.09375 31.80541992 44.96875 31.05541992 C43.90625 29.18041992 43.90625 29.18041992 42.96875 27.05541992 C41.99121356 26.03345001 40.9881619 25.03562367 39.96875 24.05541992 C39.329375 23.16854492 38.69 22.28166992 38.03125 21.36791992 C37.350625 20.60479492 36.67 19.84166992 35.96875 19.05541992 C34.64875 19.05541992 33.32875 19.05541992 31.96875 19.05541992 C31.72125 18.25104492 31.47375 17.44666992 31.21875 16.61791992 C30.22469774 13.96686796 30.22469774 13.96686796 28.09375 12.99291992 C25.74258252 12.83876687 25.74258252 12.83876687 23.71875 14.99291992 C22.8525 16.01385742 22.8525 16.01385742 21.96875 17.05541992 C21.47375 16.06541992 21.47375 16.06541992 20.96875 15.05541992 C21.29875 14.06541992 21.62875 13.07541992 21.96875 12.05541992 C21.35 12.24104492 20.73125 12.42666992 20.09375 12.61791992 C17.96875 13.05541992 17.96875 13.05541992 15.96875 12.05541992 C15.96875 12.71541992 15.96875 13.37541992 15.96875 14.05541992 C10.17252279 16.38179683 6.10784603 17.49222963 -0.03125 16.05541992 C-0.03125 15.39541992 -0.03125 14.73541992 -0.03125 14.05541992 C-1.02125 13.72541992 -2.01125 13.39541992 -3.03125 13.05541992 C-3.03125 12.39541992 -3.03125 11.73541992 -3.03125 11.05541992 C-3.69125 11.05541992 -4.35125 11.05541992 -5.03125 11.05541992 C-5.52625 9.57041992 -5.52625 9.57041992 -6.03125 8.05541992 C-3.36458333 6.72208659 -0.69791667 5.38875326 1.96875 4.05541992 C1.96875 3.39541992 1.96875 2.73541992 1.96875 2.05541992 C-0.01125 2.71541992 -1.99125 3.37541992 -4.03125 4.05541992 C-4.03125 3.39541992 -4.03125 2.73541992 -4.03125 2.05541992 C-5.6579348 2.33753869 -7.28257896 2.63144367 -8.90625 2.93041992 C-9.81117187 3.0928418 -10.71609375 3.25526367 -11.6484375 3.42260742 C-14.19630988 3.88586695 -14.19630988 3.88586695 -16.03125 6.05541992 C-16.6737735 8.12416026 -16.6737735 8.12416026 -17.03125 10.05541992 C-16.37125 9.39541992 -15.71125 8.73541992 -15.03125 8.05541992 C-14.37125 7.72541992 -13.71125 7.39541992 -13.03125 7.05541992 C-13.03125 7.71541992 -13.03125 8.37541992 -13.03125 9.05541992 C-12.04125 9.55041992 -12.04125 9.55041992 -11.03125 10.05541992 C-10.53625 11.04541992 -10.53625 11.04541992 -10.03125 12.05541992 C-8.38761866 12.77701417 -6.72074614 13.44893413 -5.03125 14.05541992 C-5.03125 14.71541992 -5.03125 15.37541992 -5.03125 16.05541992 C-4.061875 16.34416992 -3.0925 16.63291992 -2.09375 16.93041992 C0.96875 18.05541992 0.96875 18.05541992 1.96875 20.05541992 C2.95875 19.72541992 3.94875 19.39541992 4.96875 19.05541992 C4.96875 19.71541992 4.96875 20.37541992 4.96875 21.05541992 C5.62875 21.38541992 6.28875 21.71541992 6.96875 22.05541992 C6.6903125 22.95260742 6.6903125 22.95260742 6.40625 23.86791992 C5.74781313 26.21950754 5.74781313 26.21950754 6.96875 29.05541992 C7.62875 29.05541992 8.28875 29.05541992 8.96875 29.05541992 C8.96875 30.04541992 8.96875 31.03541992 8.96875 32.05541992 C9.95875 32.05541992 10.94875 32.05541992 11.96875 32.05541992 C11.63875 33.37541992 11.30875 34.69541992 10.96875 36.05541992 C11.62875 36.05541992 12.28875 36.05541992 12.96875 36.05541992 C15.65613716 40.81942444 17.34751715 45.61963248 17.96875 51.05541992 C17.63875 52.04541992 17.30875 53.03541992 16.96875 54.05541992 C16.74324463 53.54269531 16.51773926 53.0299707 16.28540039 52.50170898 C8.73264418 34.96305796 8.73264418 34.96305796 -3.796875 20.86401367 C-4.53421875 20.26717773 -5.2715625 19.6703418 -6.03125 19.05541992 C-6.03125 18.39541992 -6.03125 17.73541992 -6.03125 17.05541992 C-18.57108417 12.66647796 -27.71074192 11.30466254 -40.03125 17.05541992 C-58.89572752 27.47894492 -69.78773936 48.06127762 -76 68.02026367 C-82.66327436 92.69288788 -82.80797697 121.62249436 -70.5625 144.58276367 C-65.62123417 152.56189956 -59.99508259 158.68268376 -52 163.61791992 C-50.03125 165.05541992 -50.03125 165.05541992 -49.03125 168.05541992 C-49.69125 168.38541992 -50.35125 168.71541992 -51.03125 169.05541992 C-58.78422981 165.62621731 -65.04123536 159.91735859 -71.03125 154.05541992 C-71.7325 153.40186523 -72.43375 152.74831055 -73.15625 152.07495117 C-86.9940167 138.10205003 -90.9016672 117.75416443 -91.21875 98.86791992 C-90.99037843 70.83531001 -80.70509637 45.16735853 -60.67333984 25.33813477 C-55.83752235 20.70919716 -50.62681672 16.73047434 -45.03125 13.05541992 C-44.43368896 12.65919434 -43.83612793 12.26296875 -43.22045898 11.85473633 C-29.30884088 2.85340227 -16.22825046 0.44276597 0 0 Z " fill="#C7A868" transform="translate(110.03125,145.944580078125)"/>
<path d="M0 0 C4.96490566 4.28787307 5.41188277 9.77575936 6 16 C6.84806701 29.19840341 5.65702436 41.30895657 2 54 C1.78569336 54.75023437 1.57138672 55.50046875 1.35058594 56.2734375 C-1.93450578 67.48196004 -6.4254849 77.75445263 -12 88 C-12.34885254 88.65081543 -12.69770508 89.30163086 -13.05712891 89.97216797 C-16.49250654 96.35215501 -19.76313227 101.89741093 -25 107 C-26.58096249 109.17363014 -26.58096249 109.17363014 -27.8125 111.3125 C-28.23144531 112.00988281 -28.65039062 112.70726562 -29.08203125 113.42578125 C-29.38496094 113.94527344 -29.68789063 114.46476562 -30 115 C-31 113 -31 113 -31 111 C-31.61875 111.185625 -32.2375 111.37125 -32.875 111.5625 C-35 112 -35 112 -37 111 C-36.67 112.32 -36.34 113.64 -36 115 C-37.32 114.34 -38.64 113.68 -40 113 C-39.835 112.21625 -39.67 111.4325 -39.5 110.625 C-38.9376293 108.11791961 -38.9376293 108.11791961 -39 106 C-39.99 106.495 -39.99 106.495 -41 107 C-40.39616838 102.46263671 -38.54422378 98.83690305 -36.375 94.875 C-36.05660156 94.27429688 -35.73820312 93.67359375 -35.41015625 93.0546875 C-33.30354696 89.15054674 -30.99555562 85.43480471 -28.56640625 81.72265625 C-25.02973767 76.21106342 -22.22516461 70.53707897 -19.5625 64.5625 C-18.86145142 63.0005188 -18.86145142 63.0005188 -18.14624023 61.40698242 C-16.7515424 58.27672422 -15.37451975 55.13916056 -14 52 C-13.60039062 51.10474609 -13.20078125 50.20949219 -12.7890625 49.28710938 C-6.12584218 34.27188704 -2.58922392 19.30771864 -1.26147461 2.93798828 C-1 1 -1 1 0 0 Z " fill="#E8D294" transform="translate(420,87)"/>
<path d="M0 0 C15.31067071 -0.33603415 28.73471092 7.44760696 39.60205078 17.64672852 C43.36153368 21.54452015 46.69839852 25.73406861 49.93798828 30.06860352 C49.60798828 30.72860352 49.27798828 31.38860352 48.93798828 32.06860352 C47.06298828 31.81860352 47.06298828 31.81860352 44.93798828 31.06860352 C43.87548828 29.19360352 43.87548828 29.19360352 42.93798828 27.06860352 C41.96045184 26.0466336 40.95740018 25.04880726 39.93798828 24.06860352 C39.29861328 23.18172852 38.65923828 22.29485352 38.00048828 21.38110352 C37.31986328 20.61797852 36.63923828 19.85485352 35.93798828 19.06860352 C34.61798828 19.06860352 33.29798828 19.06860352 31.93798828 19.06860352 C31.69048828 18.26422852 31.44298828 17.45985352 31.18798828 16.63110352 C30.19393602 13.98005156 30.19393602 13.98005156 28.06298828 13.00610352 C25.7118208 12.85195046 25.7118208 12.85195046 23.68798828 15.00610352 C22.82173828 16.02704102 22.82173828 16.02704102 21.93798828 17.06860352 C21.44298828 16.07860352 21.44298828 16.07860352 20.93798828 15.06860352 C21.26798828 14.07860352 21.59798828 13.08860352 21.93798828 12.06860352 C21.31923828 12.25422852 20.70048828 12.43985352 20.06298828 12.63110352 C17.93798828 13.06860352 17.93798828 13.06860352 15.93798828 12.06860352 C15.93798828 12.72860352 15.93798828 13.38860352 15.93798828 14.06860352 C10.14176107 16.39498042 6.07708431 17.50541322 -0.06201172 16.06860352 C-0.06201172 15.40860352 -0.06201172 14.74860352 -0.06201172 14.06860352 C-1.05201172 13.73860352 -2.04201172 13.40860352 -3.06201172 13.06860352 C-3.06201172 12.40860352 -3.06201172 11.74860352 -3.06201172 11.06860352 C-3.72201172 11.06860352 -4.38201172 11.06860352 -5.06201172 11.06860352 C-5.55701172 9.58360352 -5.55701172 9.58360352 -6.06201172 8.06860352 C-3.39534505 6.73527018 -0.72867839 5.40193685 1.93798828 4.06860352 C1.93798828 3.40860352 1.93798828 2.74860352 1.93798828 2.06860352 C-0.04201172 2.72860352 -2.02201172 3.38860352 -4.06201172 4.06860352 C-4.06201172 3.40860352 -4.06201172 2.74860352 -4.06201172 2.06860352 C-5.68869652 2.35072228 -7.31334068 2.64462726 -8.93701172 2.94360352 C-9.84193359 3.10602539 -10.74685547 3.26844727 -11.67919922 3.43579102 C-14.2270716 3.89905054 -14.2270716 3.89905054 -16.06201172 6.06860352 C-16.70453522 8.13734386 -16.70453522 8.13734386 -17.06201172 10.06860352 C-16.40201172 9.40860352 -15.74201172 8.74860352 -15.06201172 8.06860352 C-14.40201172 7.73860352 -13.74201172 7.40860352 -13.06201172 7.06860352 C-13.06201172 7.72860352 -13.06201172 8.38860352 -13.06201172 9.06860352 C-12.40201172 9.39860352 -11.74201172 9.72860352 -11.06201172 10.06860352 C-10.56701172 11.05860352 -10.56701172 11.05860352 -10.06201172 12.06860352 C-8.41838038 12.79019776 -6.75150786 13.46211772 -5.06201172 14.06860352 C-5.06201172 14.72860352 -5.06201172 15.38860352 -5.06201172 16.06860352 C-4.09263672 16.35735352 -3.12326172 16.64610352 -2.12451172 16.94360352 C0.93798828 18.06860352 0.93798828 18.06860352 1.93798828 20.06860352 C2.92798828 19.73860352 3.91798828 19.40860352 4.93798828 19.06860352 C4.93798828 19.72860352 4.93798828 20.38860352 4.93798828 21.06860352 C5.59798828 21.39860352 6.25798828 21.72860352 6.93798828 22.06860352 C6.65955078 22.96579102 6.65955078 22.96579102 6.37548828 23.88110352 C5.71705141 26.23269113 5.71705141 26.23269113 6.93798828 29.06860352 C7.59798828 29.06860352 8.25798828 29.06860352 8.93798828 29.06860352 C8.93798828 30.05860352 8.93798828 31.04860352 8.93798828 32.06860352 C9.92798828 32.06860352 10.91798828 32.06860352 11.93798828 32.06860352 C11.60798828 33.38860352 11.27798828 34.70860352 10.93798828 36.06860352 C11.59798828 36.06860352 12.25798828 36.06860352 12.93798828 36.06860352 C15.62537544 40.83260803 17.31675543 45.63281607 17.93798828 51.06860352 C17.60798828 52.05860352 17.27798828 53.04860352 16.93798828 54.06860352 C16.71248291 53.55587891 16.48697754 53.0431543 16.25463867 52.51489258 C8.70188246 34.97624156 8.70188246 34.97624156 -3.82763672 20.87719727 C-4.56498047 20.28036133 -5.30232422 19.68352539 -6.06201172 19.06860352 C-6.06201172 18.40860352 -6.06201172 17.74860352 -6.06201172 17.06860352 C-17.69305843 12.99773717 -25.96224846 11.41804948 -37.58154297 16.09594727 C-39.73889932 16.94190275 -41.80392486 17.56856097 -44.06201172 18.06860352 C-40.0054984 13.51643905 -34.1881069 11.34431069 -28.18310547 10.81469727 C-25.79559213 10.81809344 -23.44206782 10.88630135 -21.06201172 11.06860352 C-21.06201172 10.40860352 -21.06201172 9.74860352 -21.06201172 9.06860352 C-23.70201172 9.06860352 -26.34201172 9.06860352 -29.06201172 9.06860352 C-28.73201172 8.40860352 -28.40201172 7.74860352 -28.06201172 7.06860352 C-28.72201172 6.40860352 -29.38201172 5.74860352 -30.06201172 5.06860352 C-20.13117383 0.45709132 -10.69330032 0.3557681 0 0 Z " fill="#C4A263" transform="translate(110.06201171875,145.931396484375)"/>
<path d="M0 0 C0.33 0.66 0.66 1.32 1 2 C2.32 1.67 3.64 1.34 5 1 C5 1.66 5 2.32 5 3 C5.66 3 6.32 3 7 3 C3.95351038 10.96774208 -0.22990463 17.17769685 -5.4375 23.875 C-6.87422321 25.74048097 -8.31041518 27.6063712 -9.74609375 29.47265625 C-10.46007324 30.39836426 -11.17405273 31.32407227 -11.90966797 32.27783203 C-14.97178523 36.26552269 -17.98975287 40.28558363 -21 44.3125 C-21.76461548 45.3341626 -21.76461548 45.3341626 -22.54467773 46.37646484 C-23.6972081 47.91707775 -24.84873623 49.45844037 -26 51 C-27.24546405 48.50907189 -26.7767578 47.58919267 -26 45 C-27.485 45.495 -27.485 45.495 -29 46 C-30.34248162 43.31503676 -30.98945962 41.94076646 -31 39 C-29.62116428 36.30624811 -27.93209829 34.08186393 -26.078125 31.69140625 C-23.33421887 28.13773835 -21.03636992 24.35709413 -18.67578125 20.54296875 C-17 18 -17 18 -14.94921875 15.4375 C-12.75267204 12.69071614 -11.0714557 9.82220045 -9.34375 6.76953125 C-7.78195516 4.71286537 -6.36285853 3.97618096 -4 3 C-3.67 3.33 -3.34 3.66 -3 4 C-2.01 2.68 -1.02 1.36 0 0 Z " fill="#E1C989" transform="translate(338,261)"/>
<path d="M0 0 C4.96490566 4.28787307 5.41188277 9.77575936 6 16 C7.43169147 38.28130728 2.32072548 60.20378087 -8 80 C-9.37013235 75.88960295 -8.06583255 74.44059952 -6.25 70.5625 C-3.35436586 64.1900952 -1.4335826 57.86610614 0 51 C-1.65 51.66 -3.3 52.32 -5 53 C-5 54.32 -5 55.64 -5 57 C-6.485 57.495 -6.485 57.495 -8 58 C-8.125 50.25 -8.125 50.25 -7 48 C-7.99 48 -8.98 48 -10 48 C-10.99 50.31 -11.98 52.62 -13 55 C-14.14588458 51.56234627 -13.92058561 51.20166914 -12.48828125 48.0703125 C-11.97213257 46.89251221 -11.97213257 46.89251221 -11.44555664 45.69091797 C-11.07164795 44.84416504 -10.69773926 43.99741211 -10.3125 43.125 C-4.84746905 30.16618938 -2.39490958 16.91203042 -1.26147461 2.93798828 C-1 1 -1 1 0 0 Z " fill="#E1CA8C" transform="translate(420,87)"/>
<path d="M0 0 C1.2876401 3.8629203 0.46836919 5.83875381 -0.4375 9.8125 C-4.17798878 28.84223668 -4.42232126 50.83099389 3 69 C4.47623468 70.74877156 4.47623468 70.74877156 6 72 C6.53625 73.155 7.0725 74.31 7.625 75.5 C11.99986063 84.49829289 18.57309543 91.34141693 27.03125 96.5625 C29 98 29 98 30 101 C29.01 101.495 29.01 101.495 28 102 C20.25596129 98.57475211 13.97016393 92.87229239 8 87 C7.27554688 86.2884375 6.55109375 85.576875 5.8046875 84.84375 C-4.46559918 74.06580656 -9.67606638 59.2878408 -10.1015625 44.4609375 C-10.06804688 43.64882813 -10.03453125 42.83671875 -10 42 C-9.01 42.66 -8.02 43.32 -7 44 C-7.0721875 43.41992188 -7.144375 42.83984375 -7.21875 42.2421875 C-7.7466387 37.79912426 -8.11496626 33.48368422 -8 29 C-7.01 28.67 -6.02 28.34 -5 28 C-5.391875 26.741875 -5.78375 25.48375 -6.1875 24.1875 C-6.75390625 21.95703125 -6.75390625 21.95703125 -7 20 C-5.625 18.375 -5.625 18.375 -4 17 C-3.74951364 13.87450983 -3.74951364 13.87450983 -4 11 C-4.66 11 -5.32 11 -6 11 C-6 10.01 -6 9.02 -6 8 C-5.01 7.67 -4.02 7.34 -3 7 C-1.28432339 3.49705129 -1.28432339 3.49705129 0 0 Z " fill="#DABD7B" transform="translate(31,213)"/>
<path d="M0 0 C0.33 0.66 0.66 1.32 1 2 C1.66 2 2.32 2 3 2 C3 4.66666667 3 7.33333333 3 10 C3.66 8.68 4.32 7.36 5 6 C5.66 6.33 6.32 6.66 7 7 C7.33 6.34 7.66 5.68 8 5 C8.99 4.34 9.98 3.68 11 3 C8.77536975 17.77947422 2.48158688 31.18861007 -5 44 C-5.495 42.515 -5.495 42.515 -6 41 C-6.33 41.66 -6.66 42.32 -7 43 C-7.66 43 -8.32 43 -9 43 C-9.66 39.7 -10.32 36.4 -11 33 C-11.99 33.495 -11.99 33.495 -13 34 C-13.66 33.67 -14.32 33.34 -15 33 C-14.48236791 27.18369756 -12.08813761 22.7151984 -9.4375 17.625 C-9.01275391 16.79355469 -8.58800781 15.96210938 -8.15039062 15.10546875 C-7.10745654 13.06647401 -6.05721708 11.0316151 -5 9 C-4.34 9 -3.68 9 -3 9 C-2.01 6.03 -1.02 3.06 0 0 Z " fill="#EAD497" transform="translate(410,133)"/>
<path d="M0 0 C-1.91136539 7.12913633 -5.03244916 12.67001041 -9.25 18.6875 C-9.79785156 19.50283203 -10.34570312 20.31816406 -10.91015625 21.15820312 C-14.04773476 25.70291579 -17.10953112 29.29312894 -21.60839844 32.52661133 C-23.49881061 34.52812667 -23.51268887 36.32016541 -24 39 C-25.21508789 41.2199707 -25.21508789 41.2199707 -26.72265625 43.42578125 C-27.52993164 44.61977539 -27.52993164 44.61977539 -28.35351562 45.83789062 C-28.91748047 46.65451172 -29.48144531 47.47113281 -30.0625 48.3125 C-30.63033203 49.14845703 -31.19816406 49.98441406 -31.78320312 50.84570312 C-33.18162031 52.90219899 -34.58733754 54.95327542 -36 57 C-36.495 55.515 -36.495 55.515 -37 54 C-37.66 53.67 -38.32 53.34 -39 53 C-37.07422977 47.97159995 -34.6347694 43.85544082 -31.58984375 39.42578125 C-29.99217584 36.98806191 -28.61302356 34.51295812 -27.25 31.9375 C-24.64642537 27.06096338 -21.81006433 22.36868069 -18.875 17.6875 C-18.45508789 17.01775146 -18.03517578 16.34800293 -17.60253906 15.65795898 C-16.40975046 13.76670543 -15.2059635 11.88287064 -14 10 C-13.31292969 8.91203125 -12.62585938 7.8240625 -11.91796875 6.703125 C-10.20621057 4.29062671 -8.83480443 2.74114941 -6.4375 1.0625 C-5.85871094 0.64097656 -5.27992188 0.21945312 -4.68359375 -0.21484375 C-3 -1 -3 -1 0 0 Z " fill="#EEDFA3" transform="translate(267,371)"/>
<path d="M0 0 C9.52356379 -0.23398856 19.04489174 2.80580673 26.94897461 8.07519531 C26.28897461 8.40519531 25.62897461 8.73519531 24.94897461 9.07519531 C23.0030069 8.35856648 21.08987557 7.55157112 19.19897461 6.70019531 C11.78106513 3.30363692 11.78106513 3.30363692 3.94897461 4.07519531 C3.94897461 3.41519531 3.94897461 2.75519531 3.94897461 2.07519531 C1.30897461 2.73519531 -1.33102539 3.39519531 -4.05102539 4.07519531 C-4.05102539 3.41519531 -4.05102539 2.75519531 -4.05102539 2.07519531 C-5.67771019 2.35731408 -7.30235435 2.65121906 -8.92602539 2.95019531 C-9.83094727 3.11261719 -10.73586914 3.27503906 -11.66821289 3.44238281 C-14.21608527 3.90564234 -14.21608527 3.90564234 -16.05102539 6.07519531 C-16.69354889 8.14393565 -16.69354889 8.14393565 -17.05102539 10.07519531 C-16.39102539 9.41519531 -15.73102539 8.75519531 -15.05102539 8.07519531 C-14.39102539 7.74519531 -13.73102539 7.41519531 -13.05102539 7.07519531 C-13.05102539 7.73519531 -13.05102539 8.39519531 -13.05102539 9.07519531 C-12.39102539 9.40519531 -11.73102539 9.73519531 -11.05102539 10.07519531 C-10.55602539 11.06519531 -10.55602539 11.06519531 -10.05102539 12.07519531 C-8.40739405 12.79678956 -6.74052153 13.46870952 -5.05102539 14.07519531 C-5.05102539 14.73519531 -5.05102539 15.39519531 -5.05102539 16.07519531 C-4.08165039 16.36394531 -3.11227539 16.65269531 -2.11352539 16.95019531 C0.94897461 18.07519531 0.94897461 18.07519531 1.94897461 20.07519531 C2.93897461 19.74519531 3.92897461 19.41519531 4.94897461 19.07519531 C4.94897461 19.73519531 4.94897461 20.39519531 4.94897461 21.07519531 C5.60897461 21.40519531 6.26897461 21.73519531 6.94897461 22.07519531 C6.67053711 22.97238281 6.67053711 22.97238281 6.38647461 23.88769531 C5.72803774 26.23928293 5.72803774 26.23928293 6.94897461 29.07519531 C7.60897461 29.07519531 8.26897461 29.07519531 8.94897461 29.07519531 C8.94897461 30.06519531 8.94897461 31.05519531 8.94897461 32.07519531 C9.93897461 32.07519531 10.92897461 32.07519531 11.94897461 32.07519531 C11.61897461 33.39519531 11.28897461 34.71519531 10.94897461 36.07519531 C11.60897461 36.07519531 12.26897461 36.07519531 12.94897461 36.07519531 C15.63636177 40.83919983 17.32774176 45.63940787 17.94897461 51.07519531 C17.61897461 52.06519531 17.28897461 53.05519531 16.94897461 54.07519531 C16.72346924 53.5624707 16.49796387 53.04974609 16.265625 52.52148438 C8.71286879 34.98283336 8.71286879 34.98283336 -3.81665039 20.88378906 C-4.55399414 20.28695312 -5.29133789 19.69011719 -6.05102539 19.07519531 C-6.05102539 18.41519531 -6.05102539 17.75519531 -6.05102539 17.07519531 C-17.6820721 13.00432896 -25.95126213 11.42464127 -37.57055664 16.10253906 C-39.72791299 16.94849454 -41.79293853 17.57515277 -44.05102539 18.07519531 C-39.99451207 13.52303085 -34.17712057 11.35090249 -28.17211914 10.82128906 C-25.7846058 10.82468524 -23.43108149 10.89289314 -21.05102539 11.07519531 C-21.05102539 10.41519531 -21.05102539 9.75519531 -21.05102539 9.07519531 C-23.69102539 9.07519531 -26.33102539 9.07519531 -29.05102539 9.07519531 C-28.72102539 8.41519531 -28.39102539 7.75519531 -28.05102539 7.07519531 C-28.71102539 6.41519531 -29.37102539 5.75519531 -30.05102539 5.07519531 C-20.11072805 0.4592905 -10.69572334 0.39212984 0 0 Z " fill="#BF9E5E" transform="translate(110.051025390625,145.9248046875)"/>
<path d="M0 0 C0.495 0.99 0.495 0.99 1 2 C-0.32035406 4.39642716 -1.69549711 6.65003625 -3.1875 8.9375 C-3.63585205 9.6397168 -4.0842041 10.34193359 -4.54614258 11.06542969 C-5.51589573 12.58388306 -6.48893564 14.10024117 -7.46484375 15.61474609 C-10.0598051 19.64667555 -12.62407828 23.69796991 -15.1875 27.75 C-15.95284058 28.95825439 -15.95284058 28.95825439 -16.73364258 30.19091797 C-20.0919879 35.51043233 -23.33270685 40.8758026 -26.46484375 46.33203125 C-28.91554576 50.59113933 -31.45962547 54.79395866 -34 59 C-35 56 -35 56 -35 53 C-36.65 54.32 -38.3 55.64 -40 57 C-38.43771747 52.62893292 -36.17639663 48.80670777 -33.75 44.875 C-30.40584502 39.39785282 -27.24304553 33.872544 -24.2890625 28.171875 C-23.0525567 26.08855007 -21.79228568 24.61410523 -20 23 C-19.34 24.65 -18.68 26.3 -18 28 C-16.01187252 24.92235899 -14.03610142 21.83697248 -12.0625 18.75 C-11.49853516 17.87730469 -10.93457031 17.00460937 -10.35351562 16.10546875 C-9.81533203 15.26113281 -9.27714844 14.41679687 -8.72265625 13.546875 C-8.22515869 12.77182617 -7.72766113 11.99677734 -7.21508789 11.19824219 C-5.92304602 9.08995855 -5.92304602 9.08995855 -5.48999023 6.88769531 C-4.68231107 3.77609824 -2.30070204 2.12372496 0 0 Z " fill="#E1CE8F" transform="translate(249,399)"/>
<path d="M0 0 C2.25245881 2.68841859 3.88213958 4.64641875 5 8 C3.72522105 12.67150009 0.83665023 16.09177135 -2.125 19.8125 C-2.82689453 20.7087207 -2.82689453 20.7087207 -3.54296875 21.62304688 C-4.69005565 23.08616792 -5.84431234 24.54366297 -7 26 C-8.24546405 23.50907189 -7.7767578 22.58919267 -7 20 C-7.99 20.33 -8.98 20.66 -10 21 C-11.35136344 18.29727313 -12.01569047 16.96026787 -12 14 C-10.07772616 10.33272254 -7.58808697 7.21822988 -5 4 C-4.34 3.01 -3.68 2.02 -3 1 C-2.01 0.67 -1.02 0.34 0 0 Z " fill="#E5CE8F" transform="translate(319,286)"/>
<path d="M0 0 C0.33 0.66 0.66 1.32 1 2 C-0.42472773 4.58382825 -1.89908782 7.02821864 -3.5 9.5 C-3.96051758 10.22251953 -4.42103516 10.94503906 -4.89550781 11.68945312 C-10.25557403 20.04891528 -15.97928051 28.10469752 -22 36 C-22.495 34.515 -22.495 34.515 -23 33 C-23.66 33 -24.32 33 -25 33 C-25.33 34.32 -25.66 35.64 -26 37 C-28.16695725 34.83304275 -28.73495121 34.00388632 -29 31 C-27.75 29 -27.75 29 -26 27 C-23.38633608 23.94159547 -23.38633608 23.94159547 -23 20 C-21.02 20 -19.04 20 -17 20 C-16.9175 19.443125 -16.835 18.88625 -16.75 18.3125 C-15.73328107 15.17761662 -14.32551097 13.32551097 -12 11 C-11.20722656 11.06703125 -10.41445313 11.1340625 -9.59765625 11.203125 C-8.31181641 11.10257813 -8.31181641 11.10257813 -7 11 C-4.8598745 8.5902549 -4.8598745 8.5902549 -3.1875 5.5 C-2.58292969 4.4790625 -1.97835938 3.458125 -1.35546875 2.40625 C-0.68451172 1.21515625 -0.68451172 1.21515625 0 0 Z M-21 21 C-20 23 -20 23 -20 23 Z " fill="#D3B776" transform="translate(397,190)"/>
<path d="M0 0 C0.61875 0.185625 1.2375 0.37125 1.875 0.5625 C4.04160178 1.23686176 4.04160178 1.23686176 6 0 C7.28317892 3.84953676 7.06643637 6.94738135 7 11 C7.66 11 8.32 11 9 11 C9.33 10.01 9.66 9.02 10 8 C10.33 8.99 10.66 9.98 11 11 C12.65 8.03 14.3 5.06 16 2 C16.33 2.66 16.66 3.32 17 4 C15.890625 6.56640625 15.890625 6.56640625 14.25 9.5625 C13.45335937 11.04943359 13.45335937 11.04943359 12.640625 12.56640625 C11 15 11 15 8 16 C5 16 5 16 2 15 C2.66 15 3.32 15 4 15 C3.01 13.68 2.02 12.36 1 11 C0.67 11.66 0.34 12.32 0 13 C-1.11375 13.28875 -2.2275 13.5775 -3.375 13.875 C-7.13182228 15.04091036 -8.11494586 15.67343387 -10 19 C-9.47868283 14.04274768 -7.14796788 10.71792007 -4.4375 6.6875 C-4.01275391 6.04232422 -3.58800781 5.39714844 -3.15039062 4.73242188 C-2.10733607 3.15026046 -1.05462128 1.57447499 0 0 Z " fill="#E6CF8F" transform="translate(394,165)"/>
<path d="M0 0 C1.42800079 4.51315683 0.05930409 7.91984513 -1.4375 12.25 C-1.7053833 13.03834229 -1.9732666 13.82668457 -2.24926758 14.63891602 C-4.22337863 20.24633279 -6.53701668 25.6180201 -9.1875 30.9375 C-9.51999756 31.60491211 -9.85249512 32.27232422 -10.19506836 32.95996094 C-11.79884789 36.05885739 -13.30554706 38.73932896 -16 41 C-16 40.01 -16 39.02 -16 38 C-16.33 38.66 -16.66 39.32 -17 40 C-17.66 40 -18.32 40 -19 40 C-19.66 36.7 -20.32 33.4 -21 30 C-21.66 30.33 -22.32 30.66 -23 31 C-23.66 30.67 -24.32 30.34 -25 30 C-24.125 26.125 -24.125 26.125 -23 25 C-21.33333333 25 -19.66666667 25 -18 25 C-16.66018514 24.6937566 -15.32488113 24.36548445 -14 24 C-13.34 24 -12.68 24 -12 24 C-12.33 24.99 -12.66 25.98 -13 27 C-13.66 27 -14.32 27 -15 27 C-15 27.66 -15 28.32 -15 29 C-16.32 29 -17.64 29 -19 29 C-19 29.66 -19 30.32 -19 31 C-15.91993354 31.34222961 -14.49773234 31.39621465 -12.02734375 29.4296875 C-9.57108933 26.48596833 -8.18047451 23.41211514 -6.8125 19.875 C-6.42070557 18.88391235 -6.42070557 18.88391235 -6.02099609 17.87280273 C-4.04054812 12.631302 -3.02648655 7.62839187 -3 2 C-2.34 2 -1.68 2 -1 2 C-0.67 1.34 -0.34 0.68 0 0 Z " fill="#EFDB9F" transform="translate(420,136)"/>
<path d="M0 0 C1.24922265 3.74766796 0.42676185 6.3857788 -0.375 10.125 C-2.10316088 18.78884652 -2.44197619 27.35956578 -2.53271484 36.18017578 C-2.66126749 42.6458598 -3.52586832 48.00760768 -6 54 C-8 51 -8 51 -8 48 C-8.66 48 -9.32 48 -10 48 C-10 46.02 -10 44.04 -10 42 C-9.01 42.66 -8.02 43.32 -7 44 C-7.0721875 43.41992188 -7.144375 42.83984375 -7.21875 42.2421875 C-7.7466387 37.79912426 -8.11496626 33.48368422 -8 29 C-7.01 28.67 -6.02 28.34 -5 28 C-5.391875 26.741875 -5.78375 25.48375 -6.1875 24.1875 C-6.75390625 21.95703125 -6.75390625 21.95703125 -7 20 C-5.625 18.375 -5.625 18.375 -4 17 C-3.74951364 13.87450983 -3.74951364 13.87450983 -4 11 C-4.66 11 -5.32 11 -6 11 C-6 10.01 -6 9.02 -6 8 C-5.01 7.67 -4.02 7.34 -3 7 C-1.28432339 3.49705129 -1.28432339 3.49705129 0 0 Z " fill="#D8BB7D" transform="translate(31,213)"/>
<path d="M0 0 C1.32 0.66 2.64 1.32 4 2 C3.34 3.98 2.68 5.96 2 8 C3.32 8.66 4.64 9.32 6 10 C6 10.99 6 11.98 6 13 C5.01 13.66 4.02 14.32 3 15 C2.67 15.99 2.34 16.98 2 18 C-1.69418201 19.231394 -4.2056261 18.64432764 -8 18 C-6.83791965 10.67889378 -4.440745 5.90702873 0 0 Z M4 1 C6 2 6 2 6 2 Z M12 3 C13 6 13 6 12.0625 8.1875 C11.5365625 9.0846875 11.5365625 9.0846875 11 10 C9.35 10 7.7 10 6 10 C5.67 8.68 5.34 7.36 5 6 C6.98 6 8.96 6 11 6 C11.33 5.01 11.66 4.02 12 3 Z " fill="#E1C888" transform="translate(378,192)"/>
<path d="M0 0 C2.69286663 2.69286663 3.06564355 5.5846911 3.875 9.1875 C4.13108032 10.30560059 4.13108032 10.30560059 4.39233398 11.44628906 C7.49281628 25.3580183 9.68717405 39.46507026 11.75 53.5625 C11.87769775 54.42456055 12.00539551 55.28662109 12.13696289 56.17480469 C12.74777772 60.48956971 13.14170392 64.62843393 13 69 C11.515 69.495 11.515 69.495 10 70 C9.505 67.525 9.505 67.525 9 65 C8.67 65 8.34 65 8 65 C8.02320313 63.74445313 8.04640625 62.48890625 8.0703125 61.1953125 C8.26892425 49.51807106 8.26892425 49.51807106 6.4453125 38.0234375 C5.77338596 34.97029761 5.86465008 32.1130482 6 29 C5.34 29 4.68 29 4 29 C4.020625 28.071875 4.04125 27.14375 4.0625 26.1875 C4.07296907 21.0995312 3.5121152 16.05713755 3 11 C2.01 10.67 1.02 10.34 0 10 C-0.74926071 6.33694766 -1.2380014 3.57644848 0 0 Z " fill="#F8F4CF" transform="translate(193,261)"/>
<path d="M0 0 C0 3.5036058 -0.6338536 4.23216767 -2.66796875 6.984375 C-3.51391602 8.14066406 -3.51391602 8.14066406 -4.37695312 9.3203125 C-4.97443359 10.12210937 -5.57191406 10.92390625 -6.1875 11.75 C-7.34775601 13.32805166 -8.5079136 14.90617568 -9.66796875 16.484375 C-10.22919434 17.24298828 -10.79041992 18.00160156 -11.36865234 18.78320312 C-13.61243322 21.83221994 -15.80865632 24.91313545 -18 28 C-18.14308594 27.38640625 -18.28617187 26.7728125 -18.43359375 26.140625 C-19.0270096 23.89792233 -19.90730275 22.03970153 -21 20 C-21.99 20.33 -22.98 20.66 -24 21 C-22.54955729 16.89041233 -20.48889248 13.56741255 -18 10 C-13.125 12.625 -13.125 12.625 -12 16 C-10.35 13.36 -8.7 10.72 -7 8 C-7.99 8.33 -8.98 8.66 -10 9 C-10 8.01 -10 7.02 -10 6 C-9.01 5.67 -8.02 5.34 -7 5 C-6.34 4.34 -5.68 3.68 -5 3 C-4.67 3.66 -4.34 4.32 -4 5 C-2.68 3.35 -1.36 1.7 0 0 Z " fill="#ECD99D" transform="translate(310,312)"/>
<path d="M0 0 C0.99 0.33 1.98 0.66 3 1 C6.06161885 25.38981118 6.26621263 49.71133854 6.1875 74.25 C6.18493195 75.05623055 6.18236389 75.86246109 6.17971802 76.69312286 C6.14518184 86.79561776 6.0844382 96.89779548 6 107 C4.03114542 103.70289695 3.75977997 101.25483093 3.78881836 97.44042969 C3.79219711 96.32537048 3.79557587 95.21031128 3.79905701 94.0614624 C3.81251663 92.86039856 3.82597626 91.65933472 3.83984375 90.421875 C3.84504532 89.18133362 3.85024689 87.94079224 3.85560608 86.66265869 C3.87041097 83.36454975 3.89330205 80.06663811 3.92095947 76.76861572 C3.95889298 72.13918766 3.98672352 67.50971994 4.00868225 62.88018799 C4.02086647 60.41819925 4.03839743 57.95622952 4.06199646 55.49432373 C4.09646361 49.54301284 3.84770297 43.88714534 3 38 C2.92894316 36.28241096 2.8910344 34.56277103 2.90234375 32.84375 C2.90556641 31.9671875 2.90878906 31.090625 2.91210938 30.1875 C2.92048828 29.300625 2.92886719 28.41375 2.9375 27.5 C2.94201172 26.5821875 2.94652344 25.664375 2.95117188 24.71875 C2.96283674 22.47909609 2.97920386 20.23958455 3 18 C2.34 18 1.68 18 1 18 C1.01160156 17.28714844 1.02320313 16.57429688 1.03515625 15.83984375 C1.08606026 10.43674634 0.94608271 5.32171525 0 0 Z " fill="#F9F9E2" transform="translate(204,331)"/>
<path d="M0 0 C4.94730549 4.27267292 5.45725726 9.7820854 6 16 C6.10587363 19.00204021 6.09633355 21.99662137 6.0625 25 C6.05798828 25.77472656 6.05347656 26.54945312 6.04882812 27.34765625 C6.03719758 29.23180524 6.01926906 31.11591365 6 33 C5.67 33 5.34 33 5 33 C4.67 27.72 4.34 22.44 4 17 C3.67 18.32 3.34 19.64 3 21 C2.01 21.66 1.02 22.32 0 23 C-1.19232613 25.05003955 -1.19232613 25.05003955 -2 27 C-2.66 27 -3.32 27 -4 27 C-3.43373918 20.80093418 -2.74418404 14.61740306 -2 8.4375 C-1.9170166 7.72271484 -1.8340332 7.00792969 -1.74853516 6.27148438 C-1.115894 1.115894 -1.115894 1.115894 0 0 Z " fill="#E1CA88" transform="translate(420,87)"/>
<path d="M0 0 C0.33 0.66 0.66 1.32 1 2 C2.32 1.67 3.64 1.34 5 1 C5 1.66 5 2.32 5 3 C5.66 3 6.32 3 7 3 C5.50897439 7.60862461 3.30545582 10.53330244 0 14 C-2 14 -4 14 -6 14 C-6.33 14.99 -6.66 15.98 -7 17 C-10 13.375 -10 13.375 -10 10 C-9.34 10 -8.68 10 -8 10 C-7.8453125 8.824375 -7.8453125 8.824375 -7.6875 7.625 C-7 5 -7 5 -4 3 C-3.67 3.33 -3.34 3.66 -3 4 C-2.01 2.68 -1.02 1.36 0 0 Z " fill="#E2C888" transform="translate(338,261)"/>
<path d="M0 0 C1.32860925 0.35169068 2.66158328 0.68770276 4 1 C4 1.66 4 2.32 4 3 C3.20078125 3.07476562 2.4015625 3.14953125 1.578125 3.2265625 C-7.96232178 4.36872866 -16.18151608 7.05316657 -23.69921875 13.2109375 C-26 15 -26 15 -28.3125 14.75 C-28.869375 14.5025 -29.42625 14.255 -30 14 C-22.87013144 6.42451465 -10.87407142 -5.43703571 0 0 Z " fill="#D5B470" transform="translate(85,154)"/>
<path d="M0 0 C3.55579195 3.20021276 5.65854292 7.23522613 8.0859375 11.30859375 C10.11402759 14.16033675 12.22437153 15.89725116 15 18 C16.78798992 19.9248484 18.36184222 21.94060165 20 24 C18.67688973 21.10688328 17.19694261 18.91418867 15.0625 16.5625 C12.69266761 13.85577967 10.583575 11.26030147 9 8 C9.33 7.34 9.66 6.68 10 6 C10.51949219 6.72445313 11.03898437 7.44890625 11.57421875 8.1953125 C13.6999979 11.14232611 15.84712584 14.07273984 18 17 C18.42667969 17.60070312 18.85335937 18.20140625 19.29296875 18.8203125 C22.45858755 23.00304348 26.53685163 25.58510423 30.890625 28.38671875 C33 30 33 30 34 33 C33.01 33.495 33.01 33.495 32 34 C18.71143989 28.12236764 5.6356859 15.38475401 0 2 C0 1.34 0 0.68 0 0 Z " fill="#B3985C" transform="translate(27,281)"/>
<path d="M0 0 C0.33 0.66 0.66 1.32 1 2 C0.01196289 4.24658203 0.01196289 4.24658203 -1.52734375 7.0078125 C-2.34428711 8.48701172 -2.34428711 8.48701172 -3.17773438 9.99609375 C-3.75845703 11.02863281 -4.33917969 12.06117188 -4.9375 13.125 C-5.51435547 14.16527344 -6.09121094 15.20554687 -6.68554688 16.27734375 C-8.11660809 18.85561933 -9.55500894 21.42951339 -11 24 C-15.8359375 21.421875 -15.8359375 21.421875 -17.3125 17.625 C-17.88394829 14.61190904 -18.18458359 12.04562924 -18 9 C-11.25 7.875 -11.25 7.875 -9 9 C-9 7.35 -9 5.7 -9 4 C-7.68 3.34 -6.36 2.68 -5 2 C-4 5 -4 5 -5.21484375 7.69921875 C-5.78332031 8.68535156 -6.35179687 9.67148437 -6.9375 10.6875 C-7.78634766 12.17830078 -7.78634766 12.17830078 -8.65234375 13.69921875 C-9.09707031 14.45847656 -9.54179687 15.21773438 -10 16 C-10.99 15.34 -11.98 14.68 -13 14 C-13.66 14 -14.32 14 -15 14 C-14.67 16.31 -14.34 18.62 -14 21 C-10.36736197 19.78912066 -10.22659125 19.08568664 -8.5546875 15.78125 C-8.11769531 14.93175781 -7.68070313 14.08226562 -7.23046875 13.20703125 C-6.78316406 12.31371094 -6.33585938 11.42039062 -5.875 10.5 C-4.97792576 8.73888825 -4.07955686 6.97843518 -3.1796875 5.21875 C-2.78507324 4.43435547 -2.39045898 3.64996094 -1.98388672 2.84179688 C-1 1 -1 1 0 0 Z " fill="#D1B778" transform="translate(213,458)"/>
<path d="M0 0 C0.99 0.33 1.98 0.66 3 1 C1.56994274 4.99832337 -0.32291081 8.2692907 -2.75 11.75 C-3.40484375 12.71421875 -4.0596875 13.6784375 -4.734375 14.671875 C-7.46420945 17.47701523 -9.16073881 17.75867501 -13 18 C-12.45786925 12.21727204 -9.41687181 7.25256693 -5.21875 3.33984375 C-3.375 1.9375 -3.375 1.9375 0 0 Z " fill="#F5E6AD" transform="translate(264,370)"/>
<path d="M0 0 C0.89771234 2.42382331 1.09639781 3.69327968 0.3125 6.1875 C-1.36507099 9.78229497 -3.44504924 13.00510595 -5.625 16.3125 C-6.04523438 16.95767578 -6.46546875 17.60285156 -6.8984375 18.26757812 C-7.92838241 19.84760724 -8.96365628 21.42416047 -10 23 C-10.33 22.01 -10.66 21.02 -11 20 C-11.66 19.67 -12.32 19.34 -13 19 C-10.70068587 12.53317902 -6.31391328 3.15695664 0 0 Z " fill="#F7EEB9" transform="translate(241,405)"/>
<path d="M0 0 C1.01890305 2.62610132 1.1267116 3.69395062 0.03125 6.33984375 C-0.4740625 7.19707031 -0.979375 8.05429687 -1.5 8.9375 C-2.04914063 9.89140625 -2.59828125 10.8453125 -3.1640625 11.828125 C-3.76992187 12.87484375 -4.37578125 13.9215625 -5 15 C-6.30867107 17.38678547 -7.59241458 19.7866191 -8.875 22.1875 C-9.47054687 23.29480469 -10.06609375 24.40210938 -10.6796875 25.54296875 C-11.11539063 26.35378906 -11.55109375 27.16460937 -12 28 C-12.99 28 -13.98 28 -15 28 C-17.125 23.375 -17.125 23.375 -16 20 C-12.125 20.875 -12.125 20.875 -11 22 C-10.16180842 20.37750059 -9.3295884 18.75191503 -8.5 17.125 C-8.0359375 16.22007812 -7.571875 15.31515625 -7.09375 14.3828125 C-5.86094411 12.13403141 -5.86094411 12.13403141 -6 10 C-6.66 9.67 -7.32 9.34 -8 9 C-7.6875 7.0625 -7.6875 7.0625 -7 5 C-6.01 4.67 -5.02 4.34 -4 4 C-2.62804426 2.70644173 -1.28817344 1.37701298 0 0 Z " fill="#EED997" transform="translate(214,451)"/>
<path d="M0 0 C2.76632959 2.76632959 2.9297655 4.06686802 3 8 C1.59522832 11.48591492 -0.13747943 14.73897783 -2 18 C-0.68 18.66 0.64 19.32 2 20 C1.67 20.763125 1.34 21.52625 1 22.3125 C-0.17436686 24.99069135 -0.17436686 24.99069135 0 28 C-0.99 28.33 -1.98 28.66 -3 29 C-3.125 21.25 -3.125 21.25 -2 19 C-2.99 19 -3.98 19 -5 19 C-5.99 21.31 -6.98 23.62 -8 26 C-9.18337896 22.44986311 -8.77544914 21.78573976 -7.3828125 18.4375 C-7.02316406 17.55835938 -6.66351563 16.67921875 -6.29296875 15.7734375 C-5.90753906 14.85820312 -5.52210938 13.94296875 -5.125 13 C-4.37710895 11.18770428 -3.62969261 9.37521258 -2.8828125 7.5625 C-2.54652832 6.75941406 -2.21024414 5.95632812 -1.86376953 5.12890625 C-1.179881 3.44334718 -0.57522282 1.72566846 0 0 Z " fill="#E1CA8C" transform="translate(415,116)"/>
<path d="M0 0 C3.35933819 3.82735745 4.96610481 8.3256271 6.8125 13 C7.15853271 13.87269531 7.50456543 14.74539062 7.86108398 15.64453125 C10.33905145 22.02280239 12.55465334 28.45894885 14.5625 35 C14.82587158 35.84175781 15.08924316 36.68351562 15.3605957 37.55078125 C15.59351318 38.33839844 15.82643066 39.12601563 16.06640625 39.9375 C16.27209229 40.62714844 16.47777832 41.31679687 16.68969727 42.02734375 C17.04643745 44.29521211 16.69381486 45.83027378 16 48 C15.16142312 45.39741676 14.32896656 42.79314353 13.5 40.1875 C13.26152344 39.44951172 13.02304688 38.71152344 12.77734375 37.95117188 C11.80059864 34.86744804 11 32.25504191 11 29 C10.01 29 9.02 29 8 29 C7.67 27.02 7.34 25.04 7 23 C6.01 22.67 5.02 22.34 4 22 C4.268125 21.0925 4.53625 20.185 4.8125 19.25 C5.59783886 14.20729782 3.2138832 10.14861025 1.12890625 5.671875 C0 3 0 3 0 0 Z " fill="#CDB275" transform="translate(176,205)"/>
<path d="M0 0 C0.8971875 0.5259375 0.8971875 0.5259375 1.8125 1.0625 C1.8125 5.66746974 0.97167792 6.70361568 -1.6875 10.3125 C-2.66203125 11.65054687 -2.66203125 11.65054687 -3.65625 13.015625 C-4.1615625 13.69109375 -4.666875 14.3665625 -5.1875 15.0625 C-5.5175 14.4025 -5.8475 13.7425 -6.1875 13.0625 C-5.25 10.9375 -5.25 10.9375 -4.1875 9.0625 C-7.76325896 9.0625 -9.24045935 10.15090607 -12.1875 12.0625 C-10.81991271 9.25800072 -9.35985617 6.54806336 -7.75 3.875 C-7.33878906 3.18019531 -6.92757813 2.48539062 -6.50390625 1.76953125 C-4.51047612 -0.81542118 -2.99864107 -1.28513189 0 0 Z " fill="#EAD89B" transform="translate(270.1875,362.9375)"/>
<path d="M0 0 C0.33 0.66 0.66 1.32 1 2 C-0.34079545 4.43864861 -1.73518351 6.73422208 -3.25 9.0625 C-3.69585449 9.76117188 -4.14170898 10.45984375 -4.60107422 11.1796875 C-6.05886641 13.45872118 -7.5287048 15.72966377 -9 18 C-10.03934351 19.61310023 -11.07840554 21.22638185 -12.1171875 22.83984375 C-14.73500171 26.89963868 -17.36455261 30.95163214 -20 35 C-21.15392455 32.6921509 -21.53437166 30.52769669 -22 28 C-23.485 30.475 -23.485 30.475 -25 33 C-25.33 32.34 -25.66 31.68 -26 31 C-25.00390625 29.0546875 -25.00390625 29.0546875 -23.5625 26.875 C-23.08941406 26.15054687 -22.61632812 25.42609375 -22.12890625 24.6796875 C-21.75636719 24.12539063 -21.38382813 23.57109375 -21 23 C-19 26 -19 26 -18 28 C-16.01187252 24.92235899 -14.03610142 21.83697248 -12.0625 18.75 C-11.49853516 17.87730469 -10.93457031 17.00460937 -10.35351562 16.10546875 C-9.81533203 15.26113281 -9.27714844 14.41679687 -8.72265625 13.546875 C-8.22515869 12.77182617 -7.72766113 11.99677734 -7.21508789 11.19824219 C-5.92304602 9.08995855 -5.92304602 9.08995855 -5.48999023 6.88769531 C-4.68231107 3.77609824 -2.30070204 2.12372496 0 0 Z " fill="#DBC27A" transform="translate(249,399)"/>
<path d="M0 0 C0.86625 0.495 0.86625 0.495 1.75 1 C4.19883862 2.27075898 4.19883862 2.27075898 8 2 C8 3.32 8 4.64 8 6 C8.33 6.66 8.66 7.32 9 8 C8.360625 8.12375 7.72125 8.2475 7.0625 8.375 C6.381875 8.58125 5.70125 8.7875 5 9 C4.67 9.66 4.34 10.32 4 11 C3.34 10.67 2.68 10.34 2 10 C1.67 10.66 1.34 11.32 1 12 C-0.98 12 -2.96 12 -5 12 C-3.68938409 7.76570244 -2.05643741 3.92592596 0 0 Z " fill="#DEC586" transform="translate(401,150)"/>
<path d="M0 0 C1.26223791 3.78671373 0.4226626 6.52741868 -0.375 10.3125 C-2.43275192 20.80320478 -2.7307134 31.33714347 -3 42 C-3.33 42 -3.66 42 -4 42 C-4.07347656 40.73542969 -4.07347656 40.73542969 -4.1484375 39.4453125 C-4.22320313 38.34960938 -4.29796875 37.25390625 -4.375 36.125 C-4.44460937 35.03445312 -4.51421875 33.94390625 -4.5859375 32.8203125 C-4.73253491 29.86953526 -4.73253491 29.86953526 -7 28 C-6.34 28 -5.68 28 -5 28 C-5.391875 26.741875 -5.78375 25.48375 -6.1875 24.1875 C-6.75390625 21.95703125 -6.75390625 21.95703125 -7 20 C-5.625 18.375 -5.625 18.375 -4 17 C-3.74951364 13.87450983 -3.74951364 13.87450983 -4 11 C-4.66 11 -5.32 11 -6 11 C-6 10.01 -6 9.02 -6 8 C-5.01 7.67 -4.02 7.34 -3 7 C-1.28432339 3.49705129 -1.28432339 3.49705129 0 0 Z " fill="#E2C684" transform="translate(31,213)"/>
<path d="M0 0 C7.04665572 2.95707874 12.22183693 10.54563809 16 17 C16 17.66 16 18.32 16 19 C16.99 19 17.98 19 19 19 C21.68738716 23.76400452 23.37876715 28.56421256 24 34 C23.67 34.99 23.34 35.98 23 37 C22.77449463 36.48727539 22.54898926 35.97455078 22.31665039 35.44628906 C14.76389418 17.90763804 14.76389418 17.90763804 2.234375 3.80859375 C1.49703125 3.21175781 0.7596875 2.61492187 0 2 C0 1.34 0 0.68 0 0 Z " fill="#AA8646" transform="translate(104,163)"/>
<path d="M0 0 C1.98592248 2.97888372 2.3740067 4.2524075 2.8515625 7.67578125 C2.98046875 8.58650391 3.109375 9.49722656 3.2421875 10.43554688 C3.36851562 11.38494141 3.49484375 12.33433594 3.625 13.3125 C3.7590625 14.25029297 3.893125 15.18808594 4.03125 16.15429688 C4.67337419 20.80314493 5.17340875 25.2943171 5 30 C4.01 30.33 3.02 30.66 2 31 C1.67 29.35 1.34 27.7 1 26 C0.67 26 0.34 26 0 26 C0 17.42 0 8.84 0 0 Z " fill="#F8F6D4" transform="translate(201,300)"/>
<path d="M0 0 C0.99 0.33 1.98 0.66 3 1 C3.144375 1.763125 3.28875 2.52625 3.4375 3.3125 C3.9632594 6.08172908 3.9632594 6.08172908 5 9 C5.03874921 10.66621616 5.0450286 12.33394172 5 14 C5.66 14.33 6.32 14.66 7 15 C6.67 15.99 6.34 16.98 6 18 C6.33 18.99 6.66 19.98 7 21 C7.34541851 23.33157492 7.67794257 25.66508361 8 28 C8.20625 28.9075 8.4125 29.815 8.625 30.75 C9 33 9 33 8 36 C8.66 36 9.32 36 10 36 C9.67 37.98 9.34 39.96 9 42 C7.10077616 38.68037356 6.42416342 35.59275424 5.78125 31.8359375 C5.57113281 30.63066406 5.36101562 29.42539062 5.14453125 28.18359375 C4.93183594 26.92675781 4.71914062 25.66992188 4.5 24.375 C4.07387591 21.90348026 3.64680868 19.43212291 3.21875 16.9609375 C3.01507813 15.78112305 2.81140625 14.60130859 2.6015625 13.38574219 C1.80610696 8.90872214 0.92525729 4.45183151 0 0 Z " fill="#F9F7D7" transform="translate(179,382)"/>
<path d="M0 0 C0.99 1.32 1.98 2.64 3 4 C2.01 5.485 2.01 5.485 1 7 C0.01 7 -0.98 7 -2 7 C-2 7.99 -2 8.98 -2 10 C-0.68 9.34 0.64 8.68 2 8 C0.6062718 12.43458973 -1.60582235 14.87378374 -5 18 C-5.33 16.35 -5.66 14.7 -6 13 C-6.99 13.33 -7.98 13.66 -9 14 C-8.52460544 9.721449 -5.97434671 7.90352893 -3 5 C-1.94712186 3.36622358 -0.9272999 1.70818403 0 0 Z " fill="#F4E3AA" transform="translate(302,311)"/>
<path d="M0 0 C0.66 0.66 1.32 1.32 2 2 C1.43816254 10.70848057 1.43816254 10.70848057 -1 14 C-3.625 15.75 -3.625 15.75 -6 17 C-5.979375 16.21625 -5.95875 15.4325 -5.9375 14.625 C-5.81315937 12.01885039 -5.81315937 12.01885039 -7 10 C-5.84566363 7.01796439 -4.28169765 5.18662692 -2 3 C-1.34 2.01 -0.68 1.02 0 0 Z " fill="#E4D192" transform="translate(227,426)"/>
<path d="M0 0 C1.44940773 4.5514938 0.01441999 8.01305025 -1.5 12.375 C-1.76973633 13.16704834 -2.03947266 13.95909668 -2.31738281 14.77514648 C-9.30099105 34.65049552 -9.30099105 34.65049552 -14 37 C-12.83243713 33.07274309 -11.30370516 29.44743867 -9.5625 25.75 C-5.99339867 17.9906263 -3.7872782 10.50260461 -3 2 C-2.34 2 -1.68 2 -1 2 C-0.67 1.34 -0.34 0.68 0 0 Z " fill="#F3E2A5" transform="translate(420,136)"/>
<path d="M0 0 C0.66 0.33 1.32 0.66 2 1 C1.2265625 1.66644531 0.453125 2.33289063 -0.34375 3.01953125 C-8.78189236 10.43293539 -15.27059208 18.28264553 -21 28 C-21.33 27.34 -21.66 26.68 -22 26 C-18.70179286 18.69978419 -13.47070787 12.74840877 -8 7 C-10.31 7.66 -12.62 8.32 -15 9 C-13.35 7.02 -11.7 5.04 -10 3 C-8.9171875 3.37125 -8.9171875 3.37125 -7.8125 3.75 C-4.8205652 4.31737069 -4.8205652 4.31737069 -2.1875 2.0625 C-1.1046875 1.0415625 -1.1046875 1.0415625 0 0 Z " fill="#AF8F52" transform="translate(64,164)"/>
<path d="M0 0 C0.66 0 1.32 0 2 0 C2.02708567 1.60407328 2.04643483 3.2082785 2.0625 4.8125 C2.07410156 5.70582031 2.08570313 6.59914063 2.09765625 7.51953125 C2 10 2 10 1 13 C-0.65 13.33 -2.3 13.66 -4 14 C-4.33 11.36 -4.66 8.72 -5 6 C-4.34 5.67 -3.68 5.34 -3 5 C-2.505 4.154375 -2.01 3.30875 -1.5 2.4375 C-1.005 1.633125 -0.51 0.82875 0 0 Z " fill="#EFDB9F" transform="translate(421,108)"/>
<path d="M0 0 C0.8125 2.125 0.8125 2.125 1 5 C-0.44423481 7.30107561 -2.10872135 9.01646386 -4 11 C-5.65 9.35 -7.3 7.7 -9 6 C-5.42910448 -1.62873134 -5.42910448 -1.62873134 0 0 Z " fill="#F4E5AD" transform="translate(291,333)"/>
<path d="M0 0 C0.99 0 1.98 0 3 0 C3 0.66 3 1.32 3 2 C3.969375 2.28875 4.93875 2.5775 5.9375 2.875 C9 4 9 4 10 6 C10.99 5.67 11.98 5.34 13 5 C13 5.66 13 6.32 13 7 C13.66 7.33 14.32 7.66 15 8 C14.814375 8.598125 14.62875 9.19625 14.4375 9.8125 C13.77906313 12.16408762 13.77906313 12.16408762 15 15 C15.66 15 16.32 15 17 15 C17 15.99 17 16.98 17 18 C17.99 18 18.98 18 20 18 C19.34 19.32 18.68 20.64 18 22 C17.45472656 21.154375 16.90945312 20.30875 16.34765625 19.4375 C12.02633054 12.887402 7.80071204 7.39339988 1.65234375 2.390625 C1.10707031 1.93171875 0.56179687 1.4728125 0 1 C0 0.67 0 0.34 0 0 Z " fill="#C9A664" transform="translate(102,160)"/>
<path d="M0 0 C0 3.30535226 -0.32736069 3.80780237 -2.23046875 6.328125 C-2.94106445 7.28138672 -2.94106445 7.28138672 -3.66601562 8.25390625 C-4.16810547 8.91261719 -4.67019531 9.57132812 -5.1875 10.25 C-6.16057193 11.54656313 -7.13323016 12.84343686 -8.10546875 14.140625 C-8.58419434 14.77548828 -9.06291992 15.41035156 -9.55615234 16.06445312 C-11.75267635 19.00899867 -13.87623458 22.00265648 -16 25 C-16.33 24.34 -16.66 23.68 -17 23 C-16.195625 21.989375 -15.39125 20.97875 -14.5625 19.9375 C-11.89452981 16.24454691 -11.27589129 13.50622444 -11 9 C-9.68 9 -8.36 9 -7 9 C-6.34 7.35 -5.68 5.7 -5 4 C-5.99 3.67 -6.98 3.34 -8 3 C-5.92446352 2.4465236 -4.15634036 2 -2 2 C-1.34 1.34 -0.68 0.68 0 0 Z " fill="#DCC381" transform="translate(290,340)"/>
<path d="M0 0 C0.99 0.33 1.98 0.66 3 1 C7.5648855 10.30534351 7.5648855 10.30534351 6 15 C7.32 15.66 8.64 16.32 10 17 C10 17.66 10 18.32 10 19 C9.67 19.33 9.34 19.66 9 20 C9.66 20.66 10.32 21.32 11 22 C10.34 22 9.68 22 9 22 C8.67 22.66 8.34 23.32 8 24 C6.65853506 20.56561785 5.32824095 17.12701583 4 13.6875 C3.6184375 12.71103516 3.236875 11.73457031 2.84375 10.72851562 C2.4828125 9.79072266 2.121875 8.85292969 1.75 7.88671875 C1.41484375 7.02264404 1.0796875 6.15856934 0.734375 5.26831055 C0 3 0 3 0 0 Z " fill="#CEAF6D" transform="translate(130,205)"/>
<path d="M0 0 C0.66 0.33 1.32 0.66 2 1 C3.32860925 1.35169068 4.66158328 1.68770276 6 2 C6 2.66 6 3.32 6 4 C5.29875 3.97679687 4.5975 3.95359375 3.875 3.9296875 C-0.80338438 3.84069649 -5.04110529 3.82603577 -9.5625 5.125 C-10.696875 5.41375 -11.83125 5.7025 -13 6 C-13.66 5.34 -14.32 4.68 -15 4 C-13.4470724 3.12855131 -11.88214564 2.27846343 -10.3125 1.4375 C-9.44238281 0.96183594 -8.57226562 0.48617187 -7.67578125 -0.00390625 C-4.58090332 -1.15601409 -3.1124809 -0.9703305 0 0 Z " fill="#CFAD6B" transform="translate(83,153)"/>
<path d="M0 0 C1.9375 2.5625 1.9375 2.5625 3 5 C2.175 4.71125 1.35 4.4225 0.5 4.125 C-10.33906404 0.64101513 -17.78695334 -0.29356424 -28.51953125 4.02734375 C-30.6768876 4.87329923 -32.74191314 5.49995746 -35 6 C-26.45591893 -3.4363427 -11.44063239 -2.31637495 0 0 Z " fill="#A38446" transform="translate(101,158)"/>
<path d="M0 0 C3.19848043 5.75726477 3.49868078 12.31413968 4.40234375 18.74609375 C4.92880231 22.04076408 4.92880231 22.04076408 6.08984375 25.26171875 C7.0340637 28.1024835 7.05493206 29.25717664 6 32 C3.426467 27.28140059 2.53759466 22.27051854 1.375 17.0625 C1.14554688 16.07314453 0.91609375 15.08378906 0.6796875 14.06445312 C0.463125 13.10603516 0.2465625 12.14761719 0.0234375 11.16015625 C-0.17330566 10.29011963 -0.37004883 9.42008301 -0.57275391 8.52368164 C-1.00834704 5.95069522 -1.14702754 3.60420408 -1 1 C-0.67 0.67 -0.34 0.34 0 0 Z " fill="#F9F6D1" transform="translate(167,319)"/>
<path d="M0 0 C1.21422396 2.42844792 1.12110687 4.19318942 0.72265625 6.84765625 C-0.81645143 11.43170129 -4.0761436 15.20585736 -7 19 C-7.66 18.01 -8.32 17.02 -9 16 C-9.33 16.66 -9.66 17.32 -10 18 C-9.6875 16.125 -9.6875 16.125 -9 14 C-8.01 13.34 -7.02 12.68 -6 12 C-3.90754997 9.46225016 -3.90754997 9.46225016 -4 8 C-3.51391316 4.30574002 -2.9024621 2.39768608 0 0 Z " fill="#F7ECB7" transform="translate(279,347)"/>
<path d="M0 0 C0 3.49336818 -0.69545146 4.39644434 -2.625 7.23046875 C-3.16640625 8.03291016 -3.7078125 8.83535156 -4.265625 9.66210938 C-5.12414062 10.91217773 -5.12414062 10.91217773 -6 12.1875 C-6.57234375 13.03248047 -7.1446875 13.87746094 -7.734375 14.74804688 C-9.15013971 16.83629982 -10.57218082 18.91997883 -12 21 C-12.33 20.34 -12.66 19.68 -13 19 C-12.22265625 17.2734375 -12.22265625 17.2734375 -11.0625 15.375 C-10.0415625 13.704375 -10.0415625 13.704375 -9 12 C-10.65 12.33 -12.3 12.66 -14 13 C-14 10 -14 10 -12 8 C-12 8.66 -12 9.32 -12 10 C-5.74531953 7.91510651 -3.47975761 5.58870162 0 0 Z " fill="#E1CA85" transform="translate(263,378)"/>
<path d="M0 0 C4.30260301 3.89828039 6.98440507 7.98293087 9.75 13.0625 C10.14832031 13.76955078 10.54664063 14.47660156 10.95703125 15.20507812 C12.76513804 18.46886411 14.20735697 21.33022495 15 25 C11.79392009 22.10237675 10.15421496 18.75484375 8.18359375 14.9609375 C7.14885862 12.8516573 7.14885862 12.8516573 5 12 C5 11.34 5 10.68 5 10 C3.68 9.34 2.36 8.68 1 8 C1.020625 7.236875 1.04125 6.47375 1.0625 5.6875 C1.12942841 2.89814214 1.12942841 2.89814214 0 0 Z " fill="#C2A162" transform="translate(160,178)"/>
<path d="M0 0 C1.3625385 2.65834042 2.5056522 5.03391321 3 8 C2.67 8.66 2.34 9.32 2 10 C0.88625 10.28875 -0.2275 10.5775 -1.375 10.875 C-5.13182228 12.04091036 -6.11494586 12.67343387 -8 16 C-7.43555175 11.65136348 -5.84572036 8.82172345 -3.4375 5.1875 C-2.79683594 4.21167969 -2.15617187 3.23585937 -1.49609375 2.23046875 C-0.75552734 1.12638672 -0.75552734 1.12638672 0 0 Z " fill="#DDC483" transform="translate(392,168)"/>
<path d="M0 0 C3.30503541 4.95755312 6.52749175 10.68433758 5.5625 16.75 C5.376875 17.4925 5.19125 18.235 5 19 C4.67 18.01 4.34 17.02 4 16 C1.99983534 14.79117904 1.99983534 14.79117904 0 14 C0.20625 12.88625 0.4125 11.7725 0.625 10.625 C0.74875 9.42875 0.8725 8.2325 1 7 C0.34 6.34 -0.32 5.68 -1 5 C-1.66 5 -2.32 5 -3 5 C-3 3.68 -3 2.36 -3 1 C-2.01 0.67 -1.02 0.34 0 0 Z " fill="#F2E2AA" transform="translate(188,241)"/>
<path d="M0 0 C0.33 1.32 0.66 2.64 1 4 C1.66 4 2.32 4 3 4 C3 4.66 3 5.32 3 6 C3.66 6 4.32 6 5 6 C4.79375 6.639375 4.5875 7.27875 4.375 7.9375 C3.92890433 11.5806146 4.60672499 14.29854517 5.52734375 17.81640625 C6 20 6 20 6 24 C6.66 24.33 7.32 24.66 8 25 C7.34 26.32 6.68 27.64 6 29 C5.73445312 27.84242188 5.46890625 26.68484375 5.1953125 25.4921875 C4.83869236 23.95309007 4.48191309 22.41402952 4.125 20.875 C3.95097656 20.11445313 3.77695313 19.35390625 3.59765625 18.5703125 C2.81282054 15.19842574 1.98034592 11.94158369 0.875 8.65625 C-0.11597883 5.64792141 -0.1498487 3.14682263 0 0 Z " fill="#F9F1C0" transform="translate(159,290)"/>
<path d="M0 0 C4.94730549 4.27267292 5.45725726 9.7820854 6 16 C6.10587363 19.00204021 6.09633355 21.99662137 6.0625 25 C6.05798828 25.77472656 6.05347656 26.54945312 6.04882812 27.34765625 C6.03719758 29.23180524 6.01926906 31.11591365 6 33 C5.67 33 5.34 33 5 33 C4.9498877 32.33468262 4.89977539 31.66936523 4.84814453 30.98388672 C4.61493928 27.94693031 4.37007636 24.91102054 4.125 21.875 C4.04636719 20.82828125 3.96773438 19.7815625 3.88671875 18.703125 C3.46077661 13.52628978 2.99940609 8.8557005 1 4 C0.67 6.31 0.34 8.62 0 11 C-0.33 11 -0.66 11 -1 11 C-1.02688151 9.35425434 -1.04634123 7.70838587 -1.0625 6.0625 C-1.07410156 5.14597656 -1.08570313 4.22945313 -1.09765625 3.28515625 C-1 1 -1 1 0 0 Z " fill="#B09256" transform="translate(420,87)"/>
<path d="M0 0 C0.99 0 1.98 0 3 0 C4.88300516 3.87677533 4.95542762 5.85981367 4 10 C4.31229724 11.33841672 4.64830932 12.67139075 5 14 C5.03888349 16.33300933 5.0448635 18.66709801 5 21 C3.23537317 17.91190305 3 16.76687864 3 13 C2.34 13 1.68 13 1 13 C0.67 8.71 0.34 4.42 0 0 Z " fill="#F1E3AB" transform="translate(190,439)"/>
<path d="M0 0 C0.33 0.66 0.66 1.32 1 2 C0.67 2.99 0.34 3.98 0 5 C-0.66 5 -1.32 5 -2 5 C-1.67 7.64 -1.34 10.28 -1 13 C-2.32 13 -3.64 13 -5 13 C-5 13.66 -5 14.32 -5 15 C-6.32 15 -7.64 15 -9 15 C-7.47165554 11.83256147 -5.74923498 8.82612306 -3.9375 5.8125 C-3.41027344 4.93207031 -2.88304687 4.05164063 -2.33984375 3.14453125 C-1 1 -1 1 0 0 Z " fill="#D8BD7B" transform="translate(330,266)"/>
<path d="M0 0 C0.33 0 0.66 0 1 0 C3.29612756 9.41002278 3.29612756 9.41002278 3 14 C0 13 0 13 -1.3125 10.9375 C-2.28839827 6.76775283 -1.24310355 4.0746172 0 0 Z M-5 3 C-2.43383368 6.84924948 -2.44902324 9.4349304 -2 14 C-4.56616632 10.15075052 -4.55097676 7.5650696 -5 3 Z " fill="#E3C786" transform="translate(27,258)"/>
<path d="M0 0 C0 3.63195496 -0.95453155 4.74713911 -3 7.6875 C-3.556875 8.49574219 -4.11375 9.30398438 -4.6875 10.13671875 C-5.120625 10.75160156 -5.55375 11.36648438 -6 12 C-6.33 11.34 -6.66 10.68 -7 10 C-6.67 9.34 -6.34 8.68 -6 8 C-6.99 7.67 -7.98 7.34 -9 7 C-5.67692308 1.21538462 -5.67692308 1.21538462 -2.25 0.125 C-1.5075 0.08375 -0.765 0.0425 0 0 Z " fill="#F8F0BA" transform="translate(254,389)"/>
<path d="M0 0 C5.61762261 5.18549779 9.85404922 11.62161418 14 18 C11.13302508 16.71480435 9.02392288 15.42870746 7 13 C7 12.34 7 11.68 7 11 C6.401875 10.773125 5.80375 10.54625 5.1875 10.3125 C2.36759165 8.62055499 1.40402914 6.94846119 0 4 C0 2.68 0 1.36 0 0 Z " fill="#E6C983" transform="translate(35,288)"/>
<path d="M0 0 C0.33 0.66 0.66 1.32 1 2 C-0.109375 4.56640625 -0.109375 4.56640625 -1.75 7.5625 C-2.54664063 9.04943359 -2.54664063 9.04943359 -3.359375 10.56640625 C-5 13 -5 13 -8 14 C-11 14 -11 14 -14 13 C-13.34 13 -12.68 13 -12 13 C-12 12.34 -12 11.68 -12 11 C-11.01 11 -10.02 11 -9 11 C-9 10.34 -9 9.68 -9 9 C-8.34 9 -7.68 9 -7 9 C-6.67 8.01 -6.34 7.02 -6 6 C-5.67 6.99 -5.34 7.98 -5 9 C-3.35 6.03 -1.7 3.06 0 0 Z " fill="#D9C27E" transform="translate(410,167)"/>
<path d="M0 0 C0 3.3818663 -0.44526805 3.96700411 -2.40625 6.57421875 C-3.15068359 7.57485352 -3.15068359 7.57485352 -3.91015625 8.59570312 C-4.43480469 9.28599609 -4.95945312 9.97628906 -5.5 10.6875 C-6.02464844 11.38939453 -6.54929687 12.09128906 -7.08984375 12.81445312 C-8.38686699 14.54774782 -9.6926155 16.27450715 -11 18 C-11 13.75354935 -9.18249194 11.61475228 -7 8 C-7.99 8.33 -8.98 8.66 -10 9 C-10 8.01 -10 7.02 -10 6 C-9.01 5.67 -8.02 5.34 -7 5 C-6.34 4.34 -5.68 3.68 -5 3 C-4.67 3.66 -4.34 4.32 -4 5 C-2.68 3.35 -1.36 1.7 0 0 Z " fill="#D7BE7D" transform="translate(310,312)"/>
<path d="M0 0 C5.55429293 2.52807504 10.70328633 6.46060239 13.5 11.9375 C13.665 12.618125 13.83 13.29875 14 14 C11.625 13.75 11.625 13.75 9 13 C7.875 11.125 7.875 11.125 7 9 C6.02246356 7.97803008 5.0194119 6.98020375 4 6 C0 1.2 0 1.2 0 0 Z " fill="#CAA969" transform="translate(146,164)"/>
<path d="M0 0 C0.33 0 0.66 0 1 0 C1.36923077 5.41538462 1.36923077 5.41538462 -0.5 8.375 C-0.995 8.91125 -1.49 9.4475 -2 10 C-2 9.01 -2 8.02 -2 7 C-2.66 7 -3.32 7 -4 7 C-4 7.99 -4 8.98 -4 10 C-5.32 9.67 -6.64 9.34 -8 9 C-6.53781513 4.3697479 -6.53781513 4.3697479 -4 2.625 C-2 2 -2 2 0 3 C0 2.01 0 1.02 0 0 Z " fill="#ECD79B" transform="translate(421,125)"/>
<path d="M0 0 C0.99 1.32 1.98 2.64 3 4 C3.33 3.01 3.66 2.02 4 1 C4.99 0.67 5.98 0.34 7 0 C5.75023244 3.65316671 5.32901247 4.78065836 2 7 C0.79549696 9.55183404 0.79549696 9.55183404 0 12 C-1.625 10.375 -1.625 10.375 -3 8 C-2.3007918 5.08663251 -1.33508269 2.67016539 0 0 Z " fill="#DEC280" transform="translate(368,222)"/>
<path d="M0 0 C0 0.66 0 1.32 0 2 C0.66 2 1.32 2 2 2 C0.5140084 6.59306496 -1.85014682 9.43569245 -5 13 C-5.66 12.34 -6.32 11.68 -7 11 C-6.34 11 -5.68 11 -5 11 C-4.87625 10.38125 -4.7525 9.7625 -4.625 9.125 C-4 7 -4 7 -2 5 C-2.99 4.67 -3.98 4.34 -5 4 C-5 3.01 -5 2.02 -5 1 C-2 0 -2 0 0 0 Z " fill="#DFC686" transform="translate(343,262)"/>
<path d="M0 0 C0.66 0 1.32 0 2 0 C1.67 6.6 1.34 13.2 1 20 C-1 18 -1 18 -1.23046875 14.62890625 C-1.22647796 13.2733677 -1.21172505 11.91782794 -1.1875 10.5625 C-1.18685547 9.88123047 -1.18621094 9.19996094 -1.18554688 8.49804688 C-1.15827338 5.40402053 -0.98489776 2.95469327 0 0 Z " fill="#C7A96A" transform="translate(20,234)"/>
<path d="M0 0 C0 0.99 0 1.98 0 3 C0.12375 4.2065625 0.12375 4.2065625 0.25 5.4375 C-0.08400973 8.8610997 -1.4731949 9.77046609 -4 12 C-4.99 13.485 -4.99 13.485 -6 15 C-6.99 15.33 -7.98 15.66 -9 16 C-7.51637716 9.73581469 -3.75837844 5.08486495 0 0 Z " fill="#D2B370" transform="translate(355,229)"/>
<path d="M0 0 C0.66 0.33 1.32 0.66 2 1 C-0.64 3.97 -3.28 6.94 -6 10 C-6.33 9.01 -6.66 8.02 -7 7 C-7.99 6.67 -8.98 6.34 -10 6 C-7.31100548 2.67830089 -3.94687492 1.43522725 0 0 Z " fill="#D7B876" transform="translate(55,170)"/>
<path d="M0 0 C1.875 0.625 1.875 0.625 4 2 C6.21122625 6.7715935 6.56252258 11.81934638 7 17 C2.84327315 12.21976413 0 6.31852692 0 0 Z " fill="#A98749" transform="translate(121,183)"/>
<path d="M0 0 C4.74381055 2.43272336 4.74381055 2.43272336 5.875 4.9375 C6.01382839 7.22816849 5.81411367 8.85370032 5 11 C4.01 11.495 4.01 11.495 3 12 C2.67 10.02 2.34 8.04 2 6 C0.68 6 -0.64 6 -2 6 C-2 3 -2 3 0 0 Z " fill="#E4CD8D" transform="translate(292,322)"/>
<path d="M0 0 C1.10844919 3.32534757 0.84454356 5.62182575 0 9 C-3.75 10.125 -3.75 10.125 -6 9 C-4.25 3.25 -4.25 3.25 -2 1 C-1.67 1.33 -1.34 1.66 -1 2 C-0.67 1.34 -0.34 0.68 0 0 Z " fill="#E7D194" transform="translate(408,141)"/>
<path d="M0 0 C0.33 0.99 0.66 1.98 1 3 C-0.2739589 5.03833424 -1.61061923 7.03852126 -3 9 C-3.33 9.99 -3.66 10.98 -4 12 C-6.5625 13.1875 -6.5625 13.1875 -9 14 C-7.65070536 10.16336928 -5.92248975 7.34827431 -3.375 4.1875 C-2.42753906 3.00220703 -2.42753906 3.00220703 -1.4609375 1.79296875 C-0.97882813 1.20128906 -0.49671875 0.60960937 0 0 Z " fill="#E1CC8D" transform="translate(302,308)"/>
<path d="M0 0 C0 3.80345877 -1.13786331 4.77701015 -3.5 7.6875 C-4.47453125 8.89986328 -4.47453125 8.89986328 -5.46875 10.13671875 C-5.9740625 10.75160156 -6.479375 11.36648438 -7 12 C-7 9.37886292 -6.68707555 7.49064888 -6 5 C-6.66 5 -7.32 5 -8 5 C-8 4.34 -8 3.68 -8 3 C-7.01 3 -6.02 3 -5 3 C-4.67 2.34 -4.34 1.68 -4 1 C-3.01 1 -2.02 1 -1 1 C-0.67 0.67 -0.34 0.34 0 0 Z " fill="#CCB26C" transform="translate(340,272)"/>
<path d="M0 0 C2.64194427 2.64194427 2.85205998 4.3014996 3 8 C1.1875 10.375 1.1875 10.375 -1 12 C-1.66 12 -2.32 12 -3 12 C-3.33 12.66 -3.66 13.32 -4 14 C-3.21824485 9.15311808 -1.60155722 4.6233633 0 0 Z " fill="#DCC483" transform="translate(415,116)"/>
<path d="M0 0 C0.6875 1.625 0.6875 1.625 1 4 C-0.4375 7.25 -0.4375 7.25 -2 10 C-2.33 9.01 -2.66 8.02 -3 7 C-4.65 7 -6.3 7 -8 7 C-5.53058944 4.40062046 -2.81939117 2.20979308 0 0 Z " fill="#F3DF9D" transform="translate(214,451)"/>
<path d="M0 0 C-0.99 0.33 -1.98 0.66 -3 1 C-3 1.66 -3 2.32 -3 3 C-2.01 2.67 -1.02 2.34 0 2 C0 2.99 0 3.98 0 5 C-0.99 5.33 -1.98 5.66 -3 6 C-3.66 5.34 -4.32 4.68 -5 4 C-5.33 4.66 -5.66 5.32 -6 6 C-6.99 5.67 -7.98 5.34 -9 5 C-5.28508772 -1.58552632 -5.28508772 -1.58552632 0 0 Z " fill="#F0DC9F" transform="translate(393,179)"/>
<path d="M0 0 C2 2 2 2 2.265625 4.0234375 C2.26046875 4.79945313 2.2553125 5.57546875 2.25 6.375 C2.25515625 7.14585937 2.2603125 7.91671875 2.265625 8.7109375 C1.97688045 11.1992361 1.24139229 12.84234198 0 15 C-0.99 14.34 -1.98 13.68 -3 13 C-2.34 12.67 -1.68 12.34 -1 12 C-1.020625 10.7625 -1.04125 9.525 -1.0625 8.25 C-1.06766681 5.3359175 -0.93015558 2.79046673 0 0 Z " fill="#F6E7AC" transform="translate(208,436)"/>
<path d="M0 0 C0.66 0.66 1.32 1.32 2 2 C1.8125 5 1.8125 5 1 8 C0.01 8.66 -0.98 9.32 -2 10 C-2.33 9.01 -2.66 8.02 -3 7 C-3.33 7.99 -3.66 8.98 -4 10 C-3.43454163 6.04179141 -2.19097652 3.3340947 0 0 Z " fill="#F7F2C3" transform="translate(227,426)"/>
<path d="M0 0 C-1.09068668 3.77545388 -1.9083091 6.47043472 -5 9 C-5 8.34 -5 7.68 -5 7 C-5.66 7 -6.32 7 -7 7 C-6.22006468 2.47637516 -4.81844319 0 0 0 Z " fill="#DCBC79" transform="translate(41,191)"/>
<path d="M0 0 C0 0.33 0 0.66 0 1 C-0.88042969 1.26554688 -1.76085937 1.53109375 -2.66796875 1.8046875 C-4.41013672 2.33449219 -4.41013672 2.33449219 -6.1875 2.875 C-7.91033203 3.39707031 -7.91033203 3.39707031 -9.66796875 3.9296875 C-12.50871157 4.84218871 -15.24885465 5.84980364 -18 7 C-17.67 5.68 -17.34 4.36 -17 3 C-15.948125 2.814375 -15.948125 2.814375 -14.875 2.625 C-11.952379 2.05619242 -11.952379 2.05619242 -9.0625 0.9375 C-5.87296759 -0.03888747 -3.31405075 -0.15781194 0 0 Z " fill="#DCBA74" transform="translate(84,156)"/>
<path d="M0 0 C2.3129482 2.3129482 2.49580975 3.47904875 3.125 6.625 C3.29257813 7.44226563 3.46015625 8.25953125 3.6328125 9.1015625 C3.81457031 10.04128906 3.81457031 10.04128906 4 11 C2.68 10.67 1.36 10.34 0 10 C-0.74926071 6.33694766 -1.2380014 3.57644848 0 0 Z " fill="#F5EAB7" transform="translate(193,261)"/>
<path d="M0 0 C2.10483555 0.0330288 4.2091243 0.10244546 6.3125 0.1875 C7.48425781 0.22230469 8.65601562 0.25710937 9.86328125 0.29296875 C13 1 13 1 14.91796875 3.55078125 C15.27503906 4.35902344 15.63210937 5.16726562 16 6 C15.21625 5.731875 14.4325 5.46375 13.625 5.1875 C9.10760831 3.70766479 4.55729662 2.35097726 0 1 C0 0.67 0 0.34 0 0 Z " fill="#B08E50" transform="translate(88,157)"/>
<path d="M0 0 C0.66 0 1.32 0 2 0 C2 3.3 2 6.6 2 10 C1.34 10 0.68 10 0 10 C-2.08207071 5.59090909 -2.08207071 5.59090909 -1.6875 2.75 C-1 1 -1 1 0 0 Z " fill="#EAD598" transform="translate(421,108)"/>
<path d="M0 0 C1.98 0.99 3.96 1.98 6 3 C5.67 3.99 5.34 4.98 5 6 C4.34 6 3.68 6 3 6 C1.66216607 6.31478446 0.32796291 6.64587656 -1 7 C-1.04254356 5.00045254 -1.04080783 2.99958364 -1 1 C-0.67 0.67 -0.34 0.34 0 0 Z " fill="#EED99B" transform="translate(394,167)"/>
<path d="M0 0 C2 2 2 2 3 5 C4.49985609 6.66710346 4.49985609 6.66710346 6 8 C5.01 8.495 5.01 8.495 4 9 C4 10.65 4 12.3 4 14 C1.01520806 9.52281208 0 5.36175907 0 0 Z " fill="#F5E7AD" transform="translate(152,266)"/>
<path d="M0 0 C0.2475 0.61875 0.495 1.2375 0.75 1.875 C2.20628639 4.35068687 3.37812506 4.95125002 6 6 C6 6.66 6 7.32 6 8 C5.67 8.33 5.34 8.66 5 9 C5.66 9.66 6.32 10.32 7 11 C6.34 11 5.68 11 5 11 C4.67 11.66 4.34 12.32 4 13 C3.32694982 11.39850114 2.66177773 9.79368971 2 8.1875 C1.62875 7.29417969 1.2575 6.40085938 0.875 5.48046875 C0 3 0 3 0 0 Z " fill="#C3A564" transform="translate(134,216)"/>
<path d="M0 0 C0.3449145 1.33038449 0.67516582 2.66457061 1 4 C1.3403125 5.299375 1.3403125 5.299375 1.6875 6.625 C1.790625 7.40875 1.89375 8.1925 2 9 C1.34 9.66 0.68 10.32 0 11 C-0.33 9.68 -0.66 8.36 -1 7 C-1.99 7.33 -2.98 7.66 -4 8 C-2.87548273 5.0280615 -1.77706209 2.66559313 0 0 Z " fill="#E9D999" transform="translate(242,399)"/>
<path d="M0 0 C1.32 0.33 2.64 0.66 4 1 C3.835 1.70125 3.67 2.4025 3.5 3.125 C2.97584662 6.13888194 2.92900317 8.94713625 3 12 C0.50494038 9.50494038 0.64051624 8.32671112 0.375 4.875 C0.30023438 3.96492188 0.22546875 3.05484375 0.1484375 2.1171875 C0.09945312 1.41851562 0.05046875 0.71984375 0 0 Z " fill="#F9F4CF" transform="translate(173,351)"/>
<path d="M0 0 C2.0625 0.4375 2.0625 0.4375 4 1 C2.75 3.5 2.75 3.5 1 6 C-0.32 6 -1.64 6 -3 6 C-1.125 1.125 -1.125 1.125 0 0 Z " fill="#EFDCA0" transform="translate(401,154)"/>
<path d="M0 0 C0.66 0.66 1.32 1.32 2 2 C0.02 4.97 0.02 4.97 -2 8 C-2.33 7.01 -2.66 6.02 -3 5 C-3.66 4.67 -4.32 4.34 -5 4 C-3.36587557 2.29159719 -2.13093906 1.06546953 0 0 Z " fill="#F8F2C1" transform="translate(233,420)"/>
<path d="M0 0 C0.928125 0.2784375 0.928125 0.2784375 1.875 0.5625 C4.04160178 1.23686176 4.04160178 1.23686176 6 0 C4.55746343 3.36591866 2.66735273 5.51047079 0 8 C0 5.36 0 2.72 0 0 Z " fill="#CFB575" transform="translate(323,288)"/>
<path d="M0 0 C0.99 0 1.98 0 3 0 C3 0.66 3 1.32 3 2 C3.969375 2.2475 4.93875 2.495 5.9375 2.75 C6.948125 3.1625 7.95875 3.575 9 4 C9.75 6.0625 9.75 6.0625 10 8 C10.66 8.33 11.32 8.66 12 9 C8.0557333 9 7.17603973 7.68625863 4.3125 5.0625 C3.50425781 4.33160156 2.69601563 3.60070312 1.86328125 2.84765625 C1.24839844 2.23792969 0.63351563 1.62820312 0 1 C0 0.67 0 0.34 0 0 Z " fill="#D0AE6D" transform="translate(102,160)"/>
<path d="M0 0 C0.33 1.32 0.66 2.64 1 4 C1.66 4 2.32 4 3 4 C3 4.66 3 5.32 3 6 C3.66 6 4.32 6 5 6 C4.67 7.32 4.34 8.64 4 10 C3.01 10 2.02 10 1 10 C0.67 6.7 0.34 3.4 0 0 Z " fill="#F6EAB6" transform="translate(159,290)"/>
<path d="M0 0 C2.39763185 2.39763185 2.34280586 3.33273498 2.625 6.625 C2.69976563 7.44226563 2.77453125 8.25953125 2.8515625 9.1015625 C2.90054687 9.72804688 2.94953125 10.35453125 3 11 C2.01 11.66 1.02 12.32 0 13 C0 8.71 0 4.42 0 0 Z " fill="#D0B373" transform="translate(22,247)"/>
<path d="M0 0 C1.10844919 3.32534757 0.84454356 5.62182575 0 9 C-1.32 8.67 -2.64 8.34 -4 8 C-2.25 2.25 -2.25 2.25 0 0 Z " fill="#E6CC8B" transform="translate(374,201)"/>
<path d="M0 0 C0 3 0 3 -1 5 C-3.4375 5.75 -3.4375 5.75 -6 6 C-6.66 5.34 -7.32 4.68 -8 4 C-5.36 2.68 -2.72 1.36 0 0 Z " fill="#C9A764" transform="translate(76,153)"/>
<path d="M0 0 C0.12375 0.639375 0.2475 1.27875 0.375 1.9375 C0.684375 2.9584375 0.684375 2.9584375 1 4 C1.66 4.33 2.32 4.66 3 5 C3 5.66 3 6.32 3 7 C0.69 7.33 -1.62 7.66 -4 8 C-2.87548273 5.0280615 -1.77706209 2.66559313 0 0 Z " fill="#E8D99B" transform="translate(233,414)"/>
<path d="M0 0 C1.64284201 2.95711562 2.6442194 5.62008426 3 9 C2.34 9.66 1.68 10.32 1 11 C-0.59555725 7.50971852 -1.32049797 4.84597567 -1 1 C-0.67 0.67 -0.34 0.34 0 0 Z " fill="#F9F1C4" transform="translate(167,319)"/>
<path d="M0 0 C0.66 0.66 1.32 1.32 2 2 C1.67 2.66 1.34 3.32 1 4 C1.66 4.33 2.32 4.66 3 5 C0.69 5.66 -1.62 6.32 -4 7 C-3.39816251 4.97954558 -2.72693904 2.97888961 -2 1 C-1.34 0.67 -0.68 0.34 0 0 Z " fill="#EBD797" transform="translate(313,294)"/>
<path d="M0 0 C1.32 0 2.64 0 4 0 C4 3.39593478 3.47834052 4.06619881 1.5 6.6875 C1.0359375 7.31011719 0.571875 7.93273437 0.09375 8.57421875 C-0.2671875 9.04472656 -0.628125 9.51523438 -1 10 C-1 6.58900832 -0.50854594 3.36911686 0 0 Z " fill="#C2A261" transform="translate(357,243)"/>
<path d="M0 0 C2.5625 2.1875 2.5625 2.1875 5 5 C4.8125 7.8125 4.8125 7.8125 4 10 C3.34 10 2.68 10 2 10 C1.01 7.03 0.02 4.06 -1 1 C-0.67 0.67 -0.34 0.34 0 0 Z " fill="#E4CA89" transform="translate(140,228)"/>
<path d="M0 0 C0.66 0.99 1.32 1.98 2 3 C-2 9.57142857 -2 9.57142857 -6 11 C-4.18690997 7.22272911 -2.0926741 3.62730178 0 0 Z " fill="#D6BD79" transform="translate(378,192)"/>
<path d="M0 0 C2.0625 0.4375 2.0625 0.4375 4 1 C3.625 3.4375 3.625 3.4375 3 6 C2.01 6.495 2.01 6.495 1 7 C0.34 5.02 -0.32 3.04 -1 1 C-0.67 0.67 -0.34 0.34 0 0 Z " fill="#F6E8B1" transform="translate(281,343)"/>
<path d="M0 0 C1.32 1.65 2.64 3.3 4 5 C2.68 5.99 1.36 6.98 0 8 C0.33 6.68 0.66 5.36 1 4 C-0.65 4.66 -2.3 5.32 -4 6 C-2.68 4.02 -1.36 2.04 0 0 Z " fill="#E2C583" transform="translate(348,243)"/>
<path d="M0 0 C0 3.99904969 -1.72586967 5.80200422 -4 9 C-4.98120464 5.94736336 -4.98120464 4.05263664 -4 1 C-3.01 1 -2.02 1 -1 1 C-0.67 0.67 -0.34 0.34 0 0 Z " fill="#DAC37E" transform="translate(224,440)"/>
<path d="M0 0 C0.66 1.32 1.32 2.64 2 4 C-0.31 5.65 -2.62 7.3 -5 9 C-3.50163895 5.88801935 -1.80066242 2.9465385 0 0 Z " fill="#E6D292" transform="translate(263,366)"/>
<path d="M0 0 C0.99 0.33 1.98 0.66 3 1 C1.70700306 3.88437779 0.34058637 5.87219421 -2 8 C-2.125 5.125 -2.125 5.125 -2 2 C-1.34 1.34 -0.68 0.68 0 0 Z " fill="#DCBD7A" transform="translate(45,179)"/>
<path d="M0 0 C0 3.39593478 -0.52165948 4.06619881 -2.5 6.6875 C-2.9640625 7.31011719 -3.428125 7.93273437 -3.90625 8.57421875 C-4.2671875 9.04472656 -4.628125 9.51523438 -5 10 C-5 6.73204297 -4.42149484 4.9178052 -3 2 C-2.01 1.34 -1.02 0.68 0 0 Z " fill="#BFA05F" transform="translate(373,226)"/>
<path d="M0 0 C0.33 0.66 0.66 1.32 1 2 C-0.1875 3.5 -0.1875 3.5 -2 5 C-4.6875 5.1875 -4.6875 5.1875 -7 5 C-6.67 3.68 -6.34 2.36 -6 1 C-5.67 1.66 -5.34 2.32 -5 3 C-4.34 3 -3.68 3 -3 3 C-2.67 2.34 -2.34 1.68 -2 1 C-1.34 0.67 -0.68 0.34 0 0 Z " fill="#EFDC9F" transform="translate(409,148)"/>
<path d="M0 0 C0.33 0.66 0.66 1.32 1 2 C0.0625 4.625 0.0625 4.625 -1 7 C-1.99 7 -2.98 7 -4 7 C-3.43628586 3.73045798 -2.50037734 2.17424117 0 0 Z " fill="#F7E7AE" transform="translate(279,347)"/>
<path d="M0 0 C1.98 0.495 1.98 0.495 4 1 C2.75023244 4.65316671 2.32901247 5.78065836 -1 8 C-0.814375 7.38125 -0.62875 6.7625 -0.4375 6.125 C0.23686176 3.95839822 0.23686176 3.95839822 -1 2 C-0.67 1.34 -0.34 0.68 0 0 Z " fill="#F0DA9B" transform="translate(327,282)"/>
<path d="M0 0 C0.99 0.33 1.98 0.66 3 1 C1.68775452 4.93673644 0.08089673 7.22719294 -3 10 C-2.690625 9.278125 -2.38125 8.55625 -2.0625 7.8125 C-1.07439461 5.19692691 -0.4712246 2.74881018 0 0 Z " fill="#E5CB86" transform="translate(379,211)"/>
<path d="M0 0 C1.875 0.625 1.875 0.625 4 2 C5.25 5.125 5.25 5.125 6 8 C5.01 8.495 5.01 8.495 4 9 C0 2.25 0 2.25 0 0 Z " fill="#CFAE6C" transform="translate(121,183)"/>
<path d="M0 0 C4.51478398 0.53115106 7.34666857 2.36620292 11 5 C10.01 5.66 9.02 6.32 8 7 C7.4225 6.401875 6.845 5.80375 6.25 5.1875 C4.25892393 3.2517316 2.25527003 1.61090717 0 0 Z " fill="#D2B26F" transform="translate(128,152)"/>
<path d="M0 0 C0.33 0.66 0.66 1.32 1 2 C0.22265625 3.7265625 0.22265625 3.7265625 -0.9375 5.625 C-1.618125 6.73875 -2.29875 7.8525 -3 9 C-3.99 8.01 -4.98 7.02 -6 6 C-4 4 -2 2 0 0 Z " fill="#DCC683" transform="translate(249,399)"/>
<path d="M0 0 C0 1.32 0 2.64 0 4 C-1.98 4.33 -3.96 4.66 -6 5 C-4.87312259 1.61936778 -3.78825335 0 0 0 Z " fill="#FAEEB9" transform="translate(257,383)"/>
<path d="M0 0 C0.66 0.33 1.32 0.66 2 1 C2.625 3.0625 2.625 3.0625 3 5 C2.01 5.33 1.02 5.66 0 6 C-0.33 6.66 -0.66 7.32 -1 8 C-1.33 6.68 -1.66 5.36 -2 4 C-1.34 4 -0.68 4 0 4 C0 2.68 0 1.36 0 0 Z " fill="#DFC382" transform="translate(31,278)"/>
<path d="M0 0 C0 3 0 3 -2.5 5.6875 C-3.325 6.450625 -4.15 7.21375 -5 8 C-5.33 7.34 -5.66 6.68 -6 6 C-5.34 6 -4.68 6 -4 6 C-3.896875 5.38125 -3.79375 4.7625 -3.6875 4.125 C-3 2 -3 2 0 0 Z " fill="#EAD392" transform="translate(342,267)"/>
<path d="M0 0 C1.25 1.5625 1.25 1.5625 2 4 C0.93237266 6.57001015 -0.46544943 8.6530403 -2 11 C-2.95465783 8.83032311 -3.14401212 7.43671207 -2.3984375 5.17578125 C-1.64129615 3.4315257 -0.82390802 1.71372869 0 0 Z " fill="#BD9D5D" transform="translate(26,206)"/>
<path d="M0 0 C1.32 0 2.64 0 4 0 C4 3 4 3 2 5.1875 C1.34 5.785625 0.68 6.38375 0 7 C0 4.69 0 2.38 0 0 Z " fill="#C7AB6A" transform="translate(383,206)"/>
<path d="M0 0 C1.32 0.66 2.64 1.32 4 2 C1.01353231 3.99097846 -1.59687262 4.94124926 -5 6 C-3.35 4.02 -1.7 2.04 0 0 Z " fill="#C3A363" transform="translate(54,167)"/>
<path d="M0 0 C0.66 0.33 1.32 0.66 2 1 C-0.97 3.475 -0.97 3.475 -4 6 C-4.33 5.01 -4.66 4.02 -5 3 C-2.625 1.4375 -2.625 1.4375 0 0 Z " fill="#E3C37F" transform="translate(55,170)"/>
<path d="M0 0 C0.66 1.32 1.32 2.64 2 4 C0.68 5.32 -0.64 6.64 -2 8 C-2.33 7.34 -2.66 6.68 -3 6 C-2.06553465 3.96855359 -1.06775224 1.96466413 0 0 Z " fill="#D8C07F" transform="translate(405,142)"/>
<path d="M0 0 C0.99 0.99 1.98 1.98 3 3 C2.01 3.495 2.01 3.495 1 4 C0.59270772 6.32156597 0.25561323 8.6568787 0 11 C-0.33 11 -0.66 11 -1 11 C-1.02688151 9.35425434 -1.04634123 7.70838587 -1.0625 6.0625 C-1.07410156 5.14597656 -1.08570313 4.22945313 -1.09765625 3.28515625 C-1 1 -1 1 0 0 Z " fill="#BCA469" transform="translate(420,87)"/>
<path d="" fill="#FFFFBF" transform="translate(0,0)"/>
<path d="" fill="#FFFFBF" transform="translate(0,0)"/>
<path d="" fill="#FFFFFF" transform="translate(0,0)"/>
<path d="" fill="#FFFFFF" transform="translate(0,0)"/>
<path d="" fill="#FFFF7F" transform="translate(0,0)"/>
<path d="" fill="#FFFFAA" transform="translate(0,0)"/>
<path d="" fill="#FFFF7F" transform="translate(0,0)"/>
<path d="" fill="#FFFFAA" transform="translate(0,0)"/>
<path d="" fill="#BFBF7F" transform="translate(0,0)"/>
<path d="" fill="#FFFFFF" transform="translate(0,0)"/>
<path d="" fill="#FFFFFF" transform="translate(0,0)"/>
<path d="" fill="#FFFF00" transform="translate(0,0)"/>
</svg>
